<?xml version="1.0" encoding="UTF-8"?>
<svg id="_圖層_1" data-name="圖層 1" xmlns="http://www.w3.org/2000/svg" viewBox="0 0 774.58 444.97">
  <defs>
    <style>
      .cls-1 {
        fill: #fff;
      }
    </style>
  </defs>
  <g>
    <g>
      <path class="cls-1" d="M143.55,201.15l11.2,3.55c-1.37,3.05-3.05,6.1-5.04,9.15-1.99,3.05-4.11,5.9-6.35,8.54-2.24,2.65-4.48,4.96-6.72,6.95-.5-.81-1.23-1.83-2.19-3.08-.96-1.24-1.96-2.46-2.99-3.64-1.03-1.18-1.95-2.15-2.75-2.89,2.92-2.24,5.72-5.02,8.4-8.35,2.67-3.33,4.82-6.74,6.44-10.22ZM131.51,265.36h84.94v9.71h-84.94v-9.71ZM153.35,258.46h12.41v9.43c0,2.24-.37,4.43-1.12,6.58s-2.05,4.17-3.92,6.07c-1.87,1.9-4.42,3.67-7.65,5.32-3.24,1.65-7.34,3.09-12.32,4.34-.75-1.31-1.88-2.85-3.41-4.62-1.53-1.77-2.97-3.25-4.34-4.43,4.29-.75,7.76-1.65,10.41-2.71,2.64-1.06,4.7-2.21,6.16-3.45,1.46-1.24,2.46-2.49,2.99-3.73.53-1.24.79-2.46.79-3.64v-9.15ZM142.25,223.92h65.43v36.49h-65.43v-36.49ZM143.55,207.78h31.08v8.87h-31.08v-8.87ZM151.95,218.79l10.17-3.36c.75.87,1.51,1.9,2.29,3.08.78,1.18,1.35,2.21,1.73,3.08l-10.64,3.73c-.25-.93-.72-2.01-1.4-3.22-.69-1.21-1.4-2.32-2.15-3.31ZM154.75,231.2v2.71h39.76v-2.71h-39.76ZM154.75,240.72v2.8h39.76v-2.8h-39.76ZM154.75,250.34v2.89h39.76v-2.89h-39.76ZM183.69,201.15l11.76,2.8c-1.62,4.17-3.75,8.14-6.39,11.9-2.65,3.77-5.31,6.89-7.98,9.38-.87-.62-1.98-1.31-3.31-2.05-1.34-.75-2.69-1.45-4.06-2.1-1.37-.65-2.55-1.17-3.55-1.54,2.92-2.24,5.58-5.01,7.98-8.31,2.39-3.3,4.25-6.66,5.55-10.08ZM181.35,207.68h35.19v8.87h-35.19v-8.87ZM184.34,258.55h12.79v31.36h-12.79v-31.36ZM193.67,218.6l9.33-3.92c1.06,1,2.16,2.15,3.31,3.45,1.15,1.31,2.04,2.49,2.66,3.55l-9.89,4.2c-.5-1-1.26-2.18-2.29-3.55-1.03-1.37-2.07-2.61-3.13-3.73Z"/>
      <path class="cls-1" d="M257.42,202.18h13.16v20.07c0,4.29-.2,8.82-.61,13.58-.41,4.76-1.25,9.63-2.52,14.61-1.28,4.98-3.17,9.89-5.69,14.75-2.52,4.85-5.88,9.44-10.08,13.77s-9.44,8.23-15.73,11.71c-.62-1.06-1.51-2.22-2.66-3.5-1.15-1.28-2.37-2.52-3.64-3.73-1.28-1.21-2.41-2.16-3.41-2.85,5.72-3.05,10.47-6.42,14.23-10.13,3.76-3.7,6.78-7.62,9.05-11.76,2.27-4.14,3.97-8.32,5.09-12.55,1.12-4.23,1.87-8.38,2.24-12.46.37-4.07.56-7.89.56-11.43v-20.07ZM229.24,221.12h71.31v12.69h-71.31v-12.69ZM295.41,221.12h12.88c-.06,1.56-.11,2.77-.14,3.64-.03.87-.08,1.62-.14,2.24-.44,9.21-.89,17.1-1.35,23.66-.47,6.57-1.01,12.04-1.63,16.43-.62,4.39-1.32,7.86-2.1,10.41-.78,2.55-1.7,4.48-2.75,5.79-1.43,1.87-2.93,3.17-4.48,3.92-1.56.75-3.39,1.27-5.51,1.59-1.74.25-3.98.39-6.72.42-2.74.03-5.51-.02-8.31-.14-.06-1.81-.5-3.95-1.31-6.44-.81-2.49-1.81-4.6-2.99-6.35,2.92.25,5.61.39,8.07.42,2.46.03,4.34.05,5.65.05.93,0,1.73-.11,2.38-.33.65-.22,1.29-.64,1.91-1.26.75-.75,1.46-2.29,2.15-4.62.68-2.33,1.27-5.57,1.77-9.71.5-4.14.96-9.29,1.4-15.45.43-6.16.84-13.44,1.21-21.84v-2.43Z"/>
      <path class="cls-1" d="M330.97,227.84l6.07,2.71c-.56,3.73-1.28,7.59-2.15,11.57-.87,3.98-1.87,7.92-2.99,11.81-1.12,3.89-2.33,7.51-3.64,10.87s-2.68,6.29-4.11,8.77c-.31-1.18-.79-2.52-1.45-4.01-.65-1.49-1.32-2.97-2.01-4.43-.69-1.46-1.37-2.75-2.05-3.87,1.37-1.87,2.69-4.14,3.97-6.81,1.28-2.67,2.44-5.55,3.5-8.63,1.06-3.08,2.01-6.16,2.85-9.24.84-3.08,1.51-5.99,2.01-8.73ZM321.36,218.6h28.19v10.92h-28.19v-10.92ZM329.76,201.99h10.83v88.11h-10.83v-88.11ZM340.03,232.98c.43.62,1.15,1.67,2.15,3.13,1,1.46,2.07,3.07,3.22,4.81,1.15,1.74,2.18,3.36,3.08,4.85.9,1.49,1.54,2.58,1.91,3.27l-6.44,8.49c-.44-1.37-1.03-2.96-1.77-4.76-.75-1.8-1.56-3.67-2.43-5.6-.87-1.93-1.71-3.75-2.52-5.46-.81-1.71-1.53-3.13-2.15-4.25l4.95-4.48ZM344.04,277.03h64.03v10.83h-64.03v-10.83ZM348.61,203.67h56.66v10.64h-56.66v-10.64ZM349.36,228.68h14.75v8.87h-7.09v27.72h-7.65v-36.59ZM360.47,228.68h8.03v32.95h-17.73v-8.4h9.71v-24.55ZM367.28,207.87h11.29c-1.06,3.55-2.23,7.23-3.5,11.06-1.28,3.83-2.41,7.08-3.41,9.75h-11.2c1.18-2.86,2.39-6.21,3.64-10.03,1.24-3.83,2.3-7.42,3.17-10.78ZM373.44,219.82h10.64v2.8c0,.69-.03,1.25-.09,1.68-.06,7.97-.14,14.72-.23,20.25-.09,5.54-.22,10.08-.37,13.63-.16,3.55-.41,6.32-.75,8.31-.34,1.99-.79,3.42-1.35,4.29-.87,1.31-1.81,2.26-2.8,2.85-1,.59-2.18,1.01-3.55,1.26-1.18.25-2.61.41-4.29.47-1.68.06-3.52.03-5.51-.09-.06-1.43-.33-3.06-.79-4.9-.47-1.83-1.11-3.38-1.91-4.62,1.49.06,2.82.11,3.97.14,1.15.03,2.07.05,2.75.05.62.06,1.13-.01,1.54-.23.4-.22.76-.61,1.07-1.17.37-.56.65-1.68.84-3.36.19-1.68.33-4.15.42-7.42.09-3.27.17-7.5.23-12.69.06-5.2.12-11.56.19-19.09v-2.15ZM368.77,219.82h8.49v8.87h-11.2l2.71-8.87ZM397.8,223.08h1.96l1.87-.19,6.07,1.77c-1.31,11.51-3.67,21.2-7.09,29.07-3.42,7.87-7.81,13.86-13.16,17.97-.44-.75-1.09-1.63-1.96-2.66-.87-1.03-1.76-2.01-2.66-2.94-.9-.93-1.73-1.68-2.47-2.24,4.85-3.48,8.74-8.51,11.67-15.07,2.92-6.56,4.85-14.51,5.79-23.85v-1.87ZM383.05,240.16l7.09-5.51c2.49,2.8,4.93,5.87,7.33,9.19,2.39,3.33,4.56,6.61,6.49,9.85,1.93,3.24,3.45,6.16,4.57,8.77l-7.84,6.35c-1-2.61-2.44-5.6-4.34-8.96-1.9-3.36-4-6.75-6.3-10.17-2.3-3.42-4.64-6.59-7-9.52ZM385.95,223.08h14.28v8.87h-14.28v-8.87Z"/>
      <path class="cls-1" d="M419.55,205.54h22.4v11.01h-11.57v73.27h-10.83v-84.28ZM439.8,205.54h2.05l1.68-.37,8.12,4.48c-1.18,3.98-2.46,8.18-3.83,12.6-1.37,4.42-2.71,8.43-4.01,12.04,2.74,3.61,4.5,7.03,5.27,10.27.78,3.24,1.17,6.22,1.17,8.96,0,3.17-.33,5.8-.98,7.89-.65,2.09-1.79,3.72-3.41,4.9-.75.56-1.59,1.01-2.52,1.35-.93.34-1.9.61-2.89.79-.87.13-1.82.2-2.85.23-1.03.03-2.1.05-3.22.05,0-1.49-.23-3.27-.7-5.32-.47-2.05-1.11-3.83-1.91-5.32.75.06,1.43.11,2.05.14.62.03,1.18.02,1.68-.05.93,0,1.74-.22,2.43-.65.5-.43.87-1.12,1.12-2.05.25-.93.37-2.05.37-3.36,0-2.12-.37-4.62-1.12-7.51-.75-2.89-2.37-5.93-4.85-9.1.62-2.05,1.24-4.31,1.87-6.77.62-2.46,1.23-4.93,1.82-7.42.59-2.49,1.12-4.81,1.59-6.95s.82-3.9,1.07-5.27v-3.55ZM454.46,290.47c-.31-.93-.76-2.01-1.35-3.22-.59-1.21-1.23-2.41-1.91-3.59-.69-1.18-1.34-2.12-1.96-2.8.99-.68,2.01-1.73,3.03-3.13,1.03-1.4,1.54-3.22,1.54-5.46v-66.64h12.04v73.74c-1.49,1-2.8,1.88-3.92,2.66s-2.27,1.66-3.45,2.66c-1.18.99-2.15,1.99-2.89,2.99-.75.99-1.12,1.93-1.12,2.8ZM454.46,290.47l-1.12-10.73,4.85-3.83,19.88-4.11c-.06,1.74-.05,3.7.05,5.88.09,2.18.23,3.95.42,5.32-4.54,1.12-8.25,2.07-11.11,2.85-2.86.78-5.15,1.43-6.86,1.96-1.71.53-3.02,1.01-3.92,1.45-.9.43-1.63.84-2.19,1.21ZM459.5,205.63h37.15v43.59h-37.15v-10.64h25.11v-22.4h-25.11v-10.55ZM460.43,222.34h30.99v9.89h-30.99v-9.89ZM479.56,242.96c1.18,5.35,2.83,10.39,4.95,15.12,2.12,4.73,4.79,8.9,8.03,12.51,3.23,3.61,7.09,6.47,11.57,8.59-.87.81-1.84,1.84-2.89,3.08-1.06,1.24-2.05,2.53-2.99,3.87-.93,1.34-1.74,2.57-2.43,3.69-4.92-2.8-9.07-6.41-12.46-10.83-3.39-4.42-6.18-9.52-8.35-15.31-2.18-5.79-3.98-12.1-5.41-18.95l9.99-1.77ZM494.03,249.5l8.03,8.77c-1.68,1.31-3.42,2.65-5.23,4.01-1.81,1.37-3.59,2.65-5.37,3.83-1.77,1.18-3.41,2.21-4.9,3.08l-6.44-7.65c1.37-.93,2.91-2.08,4.62-3.45,1.71-1.37,3.39-2.81,5.04-4.34,1.65-1.52,3.06-2.94,4.25-4.25Z"/>
      <path class="cls-1" d="M509.8,248.66c3.67-1.06,8.09-2.49,13.25-4.29,5.16-1.8,10.39-3.67,15.68-5.6l2.24,10.92c-4.73,1.87-9.57,3.73-14.51,5.6-4.95,1.87-9.51,3.61-13.67,5.23l-2.99-11.85ZM511.02,219.35h28.37v11.39h-28.37v-11.39ZM520.63,202.08h11.39v75.14c0,2.74-.28,4.95-.84,6.63-.56,1.68-1.62,3.02-3.17,4.01-1.43.93-3.22,1.55-5.37,1.87-2.15.31-4.78.47-7.89.47-.12-1.49-.48-3.38-1.07-5.65-.59-2.27-1.26-4.21-2.01-5.83,1.55.06,3.05.11,4.48.14,1.43.03,2.43.02,2.99-.05.56,0,.95-.09,1.17-.28.22-.19.33-.62.33-1.31v-75.14ZM552.46,203.11h11.39v40.79c0,4.67-.23,9.19-.7,13.58-.47,4.39-1.4,8.54-2.8,12.46-1.4,3.92-3.47,7.56-6.21,10.92s-6.41,6.35-11.01,8.96c-.62-.93-1.46-1.96-2.52-3.08-1.06-1.12-2.13-2.19-3.22-3.22-1.09-1.03-2.1-1.85-3.03-2.47,4.04-2.11,7.26-4.53,9.66-7.23s4.21-5.63,5.46-8.77c1.24-3.14,2.05-6.5,2.43-10.08.37-3.58.56-7.29.56-11.15v-40.69ZM535.19,257.15c2.11-1.24,4.67-2.85,7.65-4.81,2.99-1.96,6.07-4,9.24-6.11l4.01,9.33c-2.3,1.99-4.75,4.01-7.33,6.07-2.58,2.05-5.03,4.01-7.33,5.88l-6.25-10.36ZM537.99,218.88l9.15-5.04c1.18,1.87,2.39,3.91,3.64,6.11,1.24,2.21,2.39,4.37,3.45,6.49,1.06,2.12,1.87,3.98,2.43,5.6l-9.52,5.79c-.56-1.68-1.35-3.62-2.38-5.83-1.03-2.21-2.12-4.46-3.27-6.77-1.15-2.3-2.32-4.42-3.5-6.35ZM568.79,203.11h11.67v70c0,2.24.11,3.67.33,4.29.22.62.76.93,1.63.93h4.48c.56,0,.99-.36,1.31-1.07.31-.71.54-1.94.7-3.69.16-1.74.26-4.11.33-7.09,1.31,1,2.96,1.96,4.95,2.89s3.79,1.56,5.41,1.87c-.37,4.36-.98,7.86-1.82,10.5-.84,2.64-2.04,4.57-3.59,5.79-1.56,1.21-3.64,1.82-6.25,1.82h-7.75c-2.93,0-5.23-.48-6.91-1.45-1.68-.97-2.85-2.63-3.5-4.99-.65-2.36-.98-5.66-.98-9.89v-69.91ZM575.98,249.12l7.37-7.28c2.05,1.62,4.12,3.42,6.21,5.41,2.08,1.99,4.01,3.94,5.79,5.83,1.77,1.9,3.25,3.63,4.43,5.18l-7.84,8.59c-1.06-1.62-2.47-3.45-4.25-5.51-1.77-2.05-3.69-4.17-5.74-6.35-2.05-2.18-4.05-4.14-5.97-5.88ZM586.8,212.63l11.01,5.6c-1.31,2.3-2.61,4.65-3.92,7.05s-2.58,4.68-3.83,6.86c-1.25,2.18-2.43,4.11-3.55,5.79l-8.49-4.67c1.06-1.87,2.13-3.98,3.22-6.35,1.09-2.36,2.13-4.81,3.13-7.33,1-2.52,1.8-4.84,2.43-6.95Z"/>
      <path class="cls-1" d="M605.57,266.67h50.5v10.83h-50.5v-10.83ZM608.27,204.32h21.56v20.44h-21.56v-20.44ZM609.21,227.84h44.52v34.72h-44.52v-34.72ZM616.86,211.88v5.13h3.92v-5.13h-3.92ZM619.38,236.9v4.11h23.8v-4.11h-23.8ZM619.38,249.4v4.11h23.8v-4.11h-23.8ZM625.91,230.92h10.36v27.91h.84v31.27h-11.95v-31.27h.75v-27.91ZM632.91,204.32h21.56v20.44h-21.56v-20.44ZM641.5,211.88v5.13h4.01v-5.13h-4.01ZM683.03,237.83l9.33,5.23c-1.99,6.22-4.71,12.29-8.17,18.2-3.45,5.91-7.42,11.29-11.9,16.15s-9.33,8.8-14.56,11.85c-1.06-1.43-2.43-2.97-4.11-4.62-1.68-1.65-3.3-3-4.85-4.06,5.41-2.55,10.36-6.03,14.84-10.45,4.48-4.42,8.37-9.4,11.67-14.93,3.3-5.54,5.88-11.32,7.75-17.36ZM654.66,229.06l38.55-4.57,1.31,11.39-38.55,4.76-1.31-11.57ZM661.29,202.55h11.67c.12,7.84.37,15.34.75,22.49.37,7.16.89,13.77,1.54,19.83.65,6.07,1.43,11.36,2.33,15.87.9,4.51,1.88,8.03,2.94,10.55,1.06,2.52,2.18,3.84,3.36,3.97.68.06,1.24-.93,1.68-2.99.43-2.05.75-5.13.93-9.24.75.81,1.68,1.7,2.8,2.66,1.12.97,2.27,1.82,3.45,2.57,1.18.75,2.08,1.34,2.71,1.77-.81,5.6-1.88,9.85-3.22,12.74-1.34,2.89-2.75,4.85-4.25,5.88-1.49,1.03-2.89,1.54-4.2,1.54-3.36-.13-6.24-1.56-8.63-4.29-2.4-2.74-4.43-6.64-6.11-11.71-1.68-5.07-3.05-11.17-4.11-18.29-1.06-7.12-1.87-15.17-2.43-24.13-.56-8.96-.97-18.7-1.21-29.21ZM675.29,207.96l9.43-4.76c1.18,1.56,2.35,3.28,3.5,5.18,1.15,1.9,2.21,3.77,3.17,5.6.96,1.84,1.66,3.5,2.1,4.99l-9.99,5.41c-.37-1.49-1-3.19-1.87-5.09-.87-1.9-1.87-3.84-2.99-5.83-1.12-1.99-2.24-3.83-3.36-5.51Z"/>
    </g>
    <g>
      <path class="cls-1" d="M65.19,269.76H28.36l-9.58,20.9H4.79l42.57-91.44,41.07,91.44h-14.21l-9.03-20.9ZM59.9,257.56l-12.76-29.25-13.37,29.25h26.13Z"/>
      <path class="cls-1" d="M105.32,204.62v86.04h-12.98v-86.04h12.98Z"/>
    </g>
  </g>
  <g>
    <path class="cls-1" d="M14.14,319.52l4.67,1.73c-.83,1.64-1.83,3.28-3,4.94-1.17,1.65-2.41,3.21-3.73,4.67-1.32,1.46-2.63,2.75-3.95,3.85-.16-.4-.41-.92-.75-1.55-.34-.63-.68-1.27-1.03-1.91-.35-.64-.68-1.17-1.01-1.57,1.13-.81,2.24-1.75,3.32-2.82s2.1-2.24,3.04-3.51,1.75-2.54,2.42-3.83ZM13.46,310.73l4.71,1.85c-.83,1.18-1.79,2.38-2.88,3.61s-2.22,2.38-3.38,3.49c-1.17,1.1-2.32,2.07-3.45,2.9-.22-.38-.49-.8-.83-1.27-.34-.47-.68-.95-1.03-1.43-.35-.48-.66-.89-.93-1.21.97-.67,1.95-1.46,2.94-2.38.99-.91,1.91-1.85,2.76-2.82.85-.97,1.54-1.88,2.08-2.74ZM10.92,328.58l4.55-4.59.4.2v24.66h-4.96v-20.27ZM20.99,329.91l5.16.4c-.32,4-.97,7.57-1.93,10.7-.97,3.13-2.5,5.7-4.59,7.72-.24-.32-.61-.71-1.11-1.15-.5-.44-1.01-.88-1.53-1.31-.52-.43-.99-.77-1.39-1.01,1.88-1.58,3.2-3.71,3.97-6.37s1.24-5.65,1.43-8.99ZM24.01,310.73l5.04.81c-.67,3.49-1.67,6.71-2.98,9.65s-2.98,5.37-5,7.27c-.24-.32-.59-.72-1.05-1.19-.46-.47-.93-.93-1.43-1.37s-.93-.8-1.31-1.07c1.8-1.56,3.25-3.57,4.35-6.04,1.1-2.47,1.89-5.16,2.38-8.06ZM25.14,334.79c.7,2.39,1.62,4.21,2.78,5.46s2.5,2.1,4.05,2.56c1.54.46,3.19.69,4.94.69h3.36c.71,0,1.4,0,2.08-.02.67-.01,1.21-.02,1.61-.02-.22.38-.42.85-.62,1.43-.2.58-.38,1.17-.52,1.79-.15.62-.26,1.14-.34,1.57h-6c-1.8,0-3.47-.18-5.02-.54-1.54-.36-2.96-.98-4.25-1.85-1.29-.87-2.44-2.1-3.45-3.69-1.01-1.58-1.86-3.59-2.56-6l3.95-1.37ZM23.73,320.04l2.3-3.71c.56.32,1.18.71,1.85,1.17.67.46,1.3.91,1.89,1.35s1.07.85,1.45,1.23l-2.38,4.15c-.35-.38-.83-.82-1.43-1.33-.6-.51-1.23-1.01-1.87-1.51s-1.25-.95-1.81-1.35ZM34.73,310.73l5.04.6c-.56,3.71-1.47,7.03-2.72,9.97s-2.88,5.35-4.9,7.23c-.27-.3-.66-.65-1.17-1.05-.51-.4-1.04-.79-1.59-1.17-.55-.38-1.01-.68-1.39-.93,1.96-1.53,3.48-3.57,4.55-6.12,1.07-2.55,1.8-5.4,2.18-8.54ZM29.01,327.33h4.96v18.37l-4.96-2.05v-16.32ZM31.23,332.69h10.28v4.47h-10.28v-4.47ZM33.73,320.16l3.3-3.06c.81.7,1.67,1.49,2.6,2.38.93.89,1.81,1.77,2.66,2.64.85.87,1.51,1.66,2,2.36l-3.51,3.51c-.48-.73-1.12-1.54-1.89-2.46-.78-.91-1.63-1.84-2.54-2.78s-1.79-1.8-2.62-2.58Z"/>
    <path class="cls-1" d="M47.83,316.7h17.04v4.19h-17.04v-4.19ZM49,328.62h14.55v3.99h-14.55v-3.99ZM49.64,334.43h4.63v14.06h-4.63v-14.06ZM49.84,322.78h13.06v3.95h-13.06v-3.95ZM52.1,312.46l4.31-2.1c.62.75,1.21,1.6,1.77,2.54.56.94.98,1.77,1.25,2.5l-4.47,2.34c-.22-.7-.6-1.56-1.15-2.58-.55-1.02-1.12-1.92-1.71-2.7ZM52.22,334.43h10.6v12.53h-10.6v-4.19h5.92v-4.15h-5.92v-4.19ZM66.08,312.67h17.73v20.03h-5.36v-14.95h-12.37v-5.08ZM66.12,325.68h5.4v15.63c0,.91.13,1.48.38,1.71.25.23.84.34,1.75.34h5.16c.59,0,1.03-.15,1.33-.44.3-.29.51-.86.65-1.69.13-.83.24-2.07.32-3.71.4.27.89.54,1.47.83.58.28,1.17.54,1.79.77.62.23,1.18.4,1.69.5-.22,2.26-.56,4.02-1.03,5.3-.47,1.28-1.16,2.18-2.08,2.7-.91.52-2.16.79-3.75.79h-6.29c-1.72,0-3.08-.21-4.09-.62-1.01-.42-1.71-1.13-2.12-2.14-.4-1.01-.6-2.44-.6-4.29v-15.67ZM68.22,325.68h13.02v5.04h-13.02v-5.04Z"/>
    <path class="cls-1" d="M90.82,318.75l3.55.44c-.03,1.16-.1,2.42-.22,3.79-.12,1.37-.29,2.73-.5,4.07-.22,1.34-.46,2.54-.73,3.59l-3.71-1.25c.27-.94.52-2.03.75-3.26s.42-2.5.56-3.79c.15-1.29.25-2.48.3-3.59ZM94.13,310.73h4.55v38.04h-4.55v-38.04ZM97.47,318.55l3.26-1.13c.32.86.65,1.79.99,2.78.33.99.64,1.95.91,2.86s.48,1.72.64,2.42l-3.46,1.37c-.13-.7-.32-1.52-.56-2.46-.24-.94-.52-1.93-.83-2.96s-.62-2-.95-2.88ZM102.31,338.33l3.83,1.77c-.24.72-.52,1.53-.85,2.42-.32.89-.64,1.78-.95,2.68-.31.9-.62,1.71-.95,2.44l-4.07-2.01c.38-.67.75-1.43,1.11-2.28.36-.85.71-1.71,1.05-2.58s.61-1.69.83-2.44ZM102.39,320.32h24.66v4.11h-24.66v-4.11ZM103.32,313.23h22.56v3.99h-22.56v-3.99ZM103.92,325.68h20.95v11.6h-20.95v-11.6ZM106.34,338.94h4.55v4.35c0,.48.09.79.28.91.19.12.64.18,1.37.18h4.07c.35,0,.62-.07.83-.22s.35-.44.44-.89c.09-.44.17-1.11.22-2,.46.32,1.08.62,1.87.91.79.28,1.5.48,2.12.58-.16,1.45-.42,2.58-.79,3.38s-.88,1.36-1.55,1.67c-.67.31-1.56.46-2.66.46h-5.2c-1.5,0-2.66-.16-3.46-.46s-1.36-.83-1.65-1.55-.44-1.71-.44-2.94v-4.39ZM106.46,318.11l4.15-1.01c.21.46.42.95.62,1.47.2.52.36.97.46,1.35l-4.31,1.25c-.05-.4-.17-.9-.36-1.49-.19-.59-.38-1.11-.56-1.57ZM108.75,328.82v1.17h11.08v-1.17h-11.08ZM108.75,332.97v1.21h11.08v-1.21h-11.08ZM110.41,338.17l3.14-2.46c.59.48,1.21,1.03,1.87,1.63.66.6,1.28,1.18,1.87,1.73.59.55,1.07,1.05,1.45,1.51l-3.26,2.78c-.38-.46-.86-.99-1.45-1.61s-1.21-1.25-1.85-1.89-1.24-1.21-1.77-1.69ZM111.37,311.26l4.59-.68c.29.67.6,1.4.93,2.2.32.79.58,1.47.77,2.03l-4.88.81c-.11-.54-.3-1.23-.58-2.08-.28-.85-.56-1.6-.83-2.28ZM117.94,316.9l4.63,1.09c-.48.89-.94,1.71-1.37,2.48s-.83,1.43-1.21,1.99l-3.99-1.01c.35-.67.71-1.43,1.07-2.28.36-.85.65-1.6.87-2.28ZM119.84,339.46l3.83-1.65c.54.75,1.07,1.57,1.61,2.44.54.87,1.04,1.72,1.51,2.54.47.82.85,1.56,1.15,2.24l-4.03,2.01c-.27-.67-.62-1.44-1.07-2.32-.44-.87-.93-1.77-1.47-2.7-.54-.93-1.05-1.78-1.53-2.56Z"/>
    <path class="cls-1" d="M133.94,328.46h4.27v7.7c0,1.29-.06,2.71-.18,4.25-.12,1.54-.37,3.06-.75,4.55-.38,1.49-.94,2.8-1.69,3.93-.27-.24-.63-.53-1.09-.87-.46-.34-.93-.66-1.41-.97s-.9-.54-1.25-.71c.67-.99,1.15-2.08,1.43-3.26.28-1.18.46-2.38.54-3.61.08-1.22.12-2.36.12-3.4v-7.62ZM131.96,323.55h16.68v6.45h-3.99v-2.9h-8.91v2.9h-3.79v-6.45ZM133.5,311.94h13.46v13.22h-4.31v-9.47h-5.08v9.47h-4.07v-13.22ZM135.91,328.46h8.87v3.42h-8.87v-3.42ZM137.36,334.79l2.13-2.18c.67.43,1.35.89,2.04,1.37.69.48,1.23.91,1.63,1.29l-2.26,2.54c-.35-.4-.87-.9-1.57-1.49-.7-.59-1.36-1.1-1.97-1.53ZM137.44,339.86c.91-.35,1.97-.8,3.18-1.35s2.47-1.13,3.79-1.75l.77,2.54c-1.1.7-2.16,1.39-3.18,2.08-1.02.68-2.03,1.34-3.02,1.95l-1.53-3.47ZM138.81,317.06h6.73v2.9h-4.07v4.71h-2.66v-7.62ZM142.48,328.46h4.35v15.88c0,.91-.09,1.65-.28,2.22-.19.56-.58,1.02-1.17,1.37-.56.32-1.23.52-2,.6-.77.08-1.67.12-2.72.12-.08-.56-.24-1.22-.48-1.97-.24-.75-.5-1.41-.77-1.97.51.03,1.01.04,1.51.04h1.03c.35,0,.52-.16.52-.48v-15.8ZM148.24,344.38h21.48v3.83h-21.48v-3.83ZM148.65,328.02h20.75v3.75h-20.75v-3.75ZM149.21,313.59h19.5v13.18h-19.5v-13.18ZM150.1,332.89h17.77v8.06h-17.77v-8.06ZM151.75,341.68l3.99-1.21c.32.7.64,1.46.95,2.3.31.83.56,1.54.75,2.14l-4.15,1.41c-.13-.62-.35-1.36-.64-2.24-.3-.87-.59-1.67-.89-2.4ZM153.08,317.02v1.57h11.56v-1.57h-11.56ZM153.08,321.73v1.61h11.56v-1.61h-11.56ZM153.88,310.77h4.11v5.44h-4.11v-5.44ZM154.69,336.08v1.73h8.22v-1.73h-8.22ZM154.85,315.53h3.18v9.87h-3.18v-9.87ZM159.41,310.77h4.15v5.44h-4.15v-5.44ZM159.65,315.53h3.18v9.87h-3.18v-9.87ZM161.7,340.47l4.75,1.29c-.59.91-1.16,1.79-1.71,2.64-.55.85-1.04,1.55-1.47,2.12l-3.42-1.17c.35-.7.69-1.51,1.03-2.44.34-.93.61-1.74.83-2.44Z"/>
    <path class="cls-1" d="M184.51,336.72c-.81-.99-1.7-2.01-2.68-3.06s-1.98-2.08-3-3.08c-1.02-1.01-2-1.91-2.94-2.72l4.67-3.99c.94.78,1.97,1.7,3.08,2.76,1.11,1.06,2.17,2.13,3.16,3.2.99,1.07,1.81,2.01,2.46,2.82l-4.75,4.07Z"/>
    <path class="cls-1" d="M201.51,310.77l4.55,1.41c-.64,2.36-1.43,4.75-2.36,7.15-.93,2.4-1.94,4.69-3.04,6.87-1.1,2.18-2.27,4.1-3.51,5.76-.11-.48-.3-1.09-.58-1.81s-.58-1.46-.91-2.2c-.32-.74-.62-1.34-.89-1.79.94-1.29,1.83-2.76,2.68-4.41.85-1.65,1.61-3.42,2.3-5.3.68-1.88,1.27-3.77,1.75-5.68ZM198.89,322.3l4.31-4.71.12.08v31.11h-4.43v-26.47ZM205.3,317.82h11.08v3.99h-11.08v-3.99ZM205.74,335.15h10.56v12.25h-4.27v-8.22h-2.22v8.86h-4.07v-12.89ZM206.31,323.42h9.43v3.99h-9.43v-3.99ZM206.31,329.07h9.43v3.99h-9.43v-3.99ZM206.79,342.04h7.9v3.91h-7.9v-3.91ZM207.32,312.95l3.18-2.09c.59.67,1.17,1.42,1.75,2.24.58.82,1,1.55,1.27,2.2l-3.38,2.3c-.22-.64-.6-1.41-1.15-2.3-.55-.89-1.11-1.67-1.67-2.34ZM228.83,312.02l4.43,1.01c-1.53,5.1-3.64,9.65-6.33,13.64-2.69,3.99-5.91,7.25-9.67,9.77-.16-.35-.42-.77-.77-1.25-.35-.48-.72-.97-1.11-1.45-.39-.48-.73-.87-1.03-1.17,3.55-2.12,6.53-4.95,8.95-8.48,2.42-3.53,4.26-7.55,5.52-12.07ZM216.54,322.46h16.84v4.35h-16.84v-4.35ZM216.95,314.68h10.07v4.23h-10.07v-4.23ZM219.57,329.59h12.57v18.82h-4.75v-14.51h-3.34v14.83h-4.47v-19.14ZM220.01,310.93h4.39v14.87h-4.39v-14.87ZM221.62,336.28h8.02v4.11h-8.02v-4.11ZM221.62,342.81h8.02v4.27h-8.02v-4.27Z"/>
    <path class="cls-1" d="M250.75,310.69l5.52,1.33c-.99,3.3-2.26,6.55-3.79,9.75-1.53,3.2-3.38,6.17-5.56,8.92-2.18,2.75-4.75,5.11-7.74,7.07-.16-.48-.39-1.04-.68-1.67-.3-.63-.6-1.25-.93-1.87s-.62-1.16-.89-1.61c1.83-1.15,3.49-2.56,5-4.21,1.5-1.65,2.84-3.46,4.01-5.44s2.17-4,3-6.08c.83-2.08,1.52-4.14,2.05-6.18ZM238.22,315.97h36.14v5.12h-36.14v-5.12ZM242.66,327.62h5.44v21.11h-5.44v-21.11ZM250.27,333.9h24.62v4.96h-24.62v-4.96ZM253.33,323.83h15.07v4.79h-15.07v-4.79ZM260.26,331.24h5.4v12.05c0,1.29-.15,2.3-.44,3.04-.3.74-.9,1.31-1.81,1.71-.89.38-1.94.6-3.16.69-1.22.08-2.63.11-4.21.08-.11-.75-.3-1.61-.56-2.56-.27-.95-.56-1.81-.89-2.56.59.03,1.22.05,1.89.08.67.03,1.28.04,1.83.04h1.11c.32-.03.54-.09.67-.18.12-.09.18-.26.18-.5v-11.89ZM267.07,323.83h1.33l1.13-.32,3.34,2.78c-.91.91-1.91,1.87-2.98,2.86-1.08.99-2.2,1.93-3.37,2.82-1.17.89-2.33,1.68-3.49,2.38-.32-.48-.77-1.03-1.35-1.63-.58-.6-1.05-1.09-1.43-1.47.86-.56,1.73-1.23,2.6-1.99.87-.77,1.69-1.54,2.44-2.34.75-.79,1.34-1.5,1.77-2.12v-.97Z"/>
    <path class="cls-1" d="M279.93,342.52c1.77-.24,3.82-.54,6.14-.91,2.32-.36,4.78-.76,7.35-1.19,2.58-.43,5.13-.85,7.66-1.25l.28,4.55c-2.36.46-4.75.91-7.17,1.35-2.42.44-4.74.87-6.97,1.27-2.23.4-4.27.77-6.12,1.09l-1.17-4.92ZM280.37,313.03h21.12v4.55h-21.12v-4.55ZM282.71,328.18c-.08-.35-.22-.81-.42-1.39-.2-.58-.41-1.18-.62-1.81-.22-.63-.43-1.17-.64-1.63.32-.08.64-.28.97-.58.32-.31.63-.68.93-1.11.21-.3.53-.81.95-1.55.42-.74.85-1.61,1.29-2.62.44-1.01.83-2.05,1.15-3.12l5.2,1.89c-.48,1.07-1.06,2.18-1.73,3.3-.67,1.13-1.37,2.21-2.1,3.24s-1.44,1.95-2.14,2.76v.08c-.56.35-1.03.65-1.39.91-.36.26-.69.53-.99.83s-.44.56-.44.81ZM281.26,331.56h19.34v4.59h-19.34v-4.59ZM282.71,328.18l-.08-3.71,2.34-1.49,11.89-.68c.29.7.65,1.43,1.07,2.2.42.77.77,1.42,1.07,1.95-2.58.21-4.77.4-6.57.54-1.8.15-3.26.27-4.39.36-1.13.09-2.03.18-2.72.26-.68.08-1.22.16-1.59.24-.38.08-.71.19-1.01.32ZM288.51,328.18h5.04v16.48h-5.04v-16.48ZM292.02,319.43l3.79-2.3c.73.89,1.45,1.85,2.18,2.88s1.4,2.05,2.01,3.06c.62,1.01,1.09,1.93,1.41,2.76l-4.07,2.62c-.3-.83-.73-1.77-1.31-2.82-.58-1.05-1.22-2.12-1.93-3.2s-1.4-2.09-2.08-3ZM302.86,314.56h4.96v24.46h-4.96v-24.46ZM310.51,311.09h5.24v31.27c0,1.32-.15,2.35-.46,3.1-.31.75-.87,1.34-1.67,1.77-.81.4-1.8.67-2.98.81-1.18.13-2.58.2-4.19.2-.11-.73-.34-1.58-.71-2.56-.36-.98-.73-1.82-1.11-2.52,1.05.03,2.04.05,2.98.06.94.01,1.58.02,1.93.02.38,0,.63-.07.77-.2s.2-.38.2-.73v-31.23Z"/>
    <path class="cls-1" d="M331.26,330.88l4.47,1.65c-.89,1.45-1.93,2.81-3.14,4.09-1.21,1.28-2.53,2.43-3.97,3.46-1.44,1.03-2.95,1.9-4.53,2.6-.24-.43-.56-.89-.97-1.39s-.82-.99-1.25-1.49c-.43-.5-.82-.91-1.17-1.23,1.42-.51,2.81-1.16,4.15-1.95,1.34-.79,2.57-1.69,3.67-2.68s2.01-2.01,2.74-3.06ZM321.07,329.63h37.96v4.35h-37.96v-4.35ZM323.29,313.55h33.77v4.27h-33.77v-4.27ZM324.82,343.29h30.91v4.35h-30.91v-4.35ZM328.68,310.73h5.36v21.28h-5.36v-21.28ZM330.42,337h19.34v4.15h-19.34v-4.15ZM331.83,319.31h16.28v3.67h-16.28v-3.67ZM331.83,324.47h16.28v3.71h-16.28v-3.71ZM337.23,334.71h5.48v11.16h-5.48v-11.16ZM349.03,330.88c.73.99,1.63,1.96,2.72,2.9s2.3,1.79,3.65,2.54c1.34.75,2.7,1.38,4.07,1.89-.38.32-.79.73-1.25,1.23s-.88,1-1.27,1.51c-.39.51-.72.98-.99,1.41-1.45-.67-2.87-1.52-4.25-2.54-1.38-1.02-2.66-2.16-3.83-3.42-1.17-1.26-2.2-2.57-3.08-3.91l4.23-1.61ZM346.17,310.77h5.48v21.28h-5.48v-21.28Z"/>
    <path class="cls-1" d="M371.24,324.35h.93l.89-.12,2.98.68c-.51,6.1-1.56,11.11-3.14,15.03s-3.71,6.86-6.37,8.82c-.27-.35-.63-.75-1.09-1.19-.46-.44-.94-.88-1.45-1.31-.51-.43-.95-.75-1.33-.97,2.58-1.69,4.56-4.18,5.94-7.48,1.38-3.29,2.26-7.49,2.64-12.59v-.89ZM365.39,330.92c-.11-.32-.28-.74-.52-1.25-.24-.51-.5-1.02-.79-1.53-.28-.51-.53-.94-.75-1.29.46-.11.95-.42,1.47-.95s1-1.13,1.43-1.83c.29-.43.74-1.21,1.33-2.34.59-1.13,1.22-2.45,1.89-3.97.67-1.52,1.25-3.06,1.73-4.61v-.24l1.85-.73,3.18,2.14c-1.08,2.66-2.26,5.21-3.57,7.66s-2.56,4.57-3.77,6.37v.08c-.7.35-1.28.65-1.75.91-.47.26-.88.52-1.23.81-.35.28-.52.54-.52.79ZM367.69,331c.81,2.66,1.83,4.8,3.08,6.43,1.25,1.63,2.71,2.85,4.37,3.69,1.67.83,3.51,1.4,5.52,1.71,2.01.31,4.19.46,6.53.46h5.08c1.1,0,2.2,0,3.3-.02,1.1-.01,2.13-.03,3.08-.04.95-.01,1.74-.03,2.36-.06-.27.38-.52.85-.77,1.43-.24.58-.47,1.18-.69,1.79-.21.62-.36,1.17-.44,1.65h-12.05c-2.9,0-5.55-.2-7.96-.6-2.4-.4-4.57-1.16-6.51-2.28-1.93-1.11-3.63-2.7-5.08-4.75-1.45-2.05-2.69-4.75-3.71-8.08l3.87-1.33ZM363.98,312.87h9.15v4.59h-9.15v-4.59ZM367.49,324.35h5.6v4.59h-5.68l.08-4.59ZM375.35,319.19h24.66v3.91h-24.66v-3.91ZM375.43,335.84h24.1v4.03h-24.1v-4.03ZM377,330.44h21.32v3.71h-21.32v-3.71ZM377.4,313.59h20.55v15.23h-20.75v-4.03h16.08v-7.21h-15.88v-3.99ZM384.01,310.77h5.04v31.47h-5.04v-31.47Z"/>
    <path class="cls-1" d="M404.72,338.66h21.8v4.67h-21.8v-4.67ZM405.89,311.74h9.31v8.83h-9.31v-8.83ZM406.29,321.89h19.22v14.99h-19.22v-14.99ZM409.6,315v2.22h1.69v-2.22h-1.69ZM410.68,325.8v1.77h10.28v-1.77h-10.28ZM410.68,331.2v1.77h10.28v-1.77h-10.28ZM413.51,323.22h4.47v12.05h.36v13.5h-5.16v-13.5h.32v-12.05ZM416.53,311.74h9.31v8.83h-9.31v-8.83ZM420.23,315v2.22h1.73v-2.22h-1.73ZM438.17,326.2l4.03,2.26c-.86,2.69-2.04,5.31-3.53,7.86-1.49,2.55-3.2,4.88-5.14,6.97-1.93,2.1-4.03,3.8-6.29,5.12-.46-.62-1.05-1.28-1.77-2-.72-.71-1.42-1.3-2.09-1.75,2.34-1.1,4.47-2.6,6.41-4.51,1.93-1.91,3.61-4.06,5.04-6.45,1.42-2.39,2.54-4.89,3.34-7.5ZM425.92,322.42l16.64-1.97.56,4.92-16.64,2.05-.56-5ZM428.78,310.97h5.04c.05,3.38.16,6.62.32,9.71.16,3.09.38,5.94.67,8.56.28,2.62.62,4.9,1.01,6.85.39,1.95.81,3.47,1.27,4.55.46,1.09.94,1.66,1.45,1.71.3.03.54-.4.73-1.29.19-.89.32-2.22.4-3.99.32.35.72.73,1.21,1.15.48.42.98.79,1.49,1.11.51.32.9.58,1.17.77-.35,2.42-.81,4.25-1.39,5.5s-1.19,2.1-1.83,2.54c-.64.44-1.25.66-1.81.66-1.45-.05-2.69-.67-3.73-1.85s-1.91-2.87-2.64-5.06c-.73-2.19-1.32-4.82-1.77-7.9s-.81-6.55-1.05-10.42c-.24-3.87-.42-8.07-.52-12.61ZM434.82,313.31l4.07-2.06c.51.67,1.01,1.42,1.51,2.24.5.82.95,1.63,1.37,2.42.42.79.72,1.51.91,2.16l-4.31,2.34c-.16-.65-.43-1.38-.81-2.2s-.81-1.66-1.29-2.52c-.48-.86-.97-1.65-1.45-2.38Z"/>
    <path class="cls-1" d="M448.28,313.11h3.87v31.11h-3.87v-31.11ZM450.38,324.39h10.15v4.39h-10.15v-4.39ZM450.94,313.11h11.56v27.88h-11.56v-4.55h7.58v-18.78h-7.58v-4.55ZM453.64,315.85h3.26v22.57h-3.26v-22.57ZM469.07,310.65l5.04,1.41c-.72,1.77-1.59,3.51-2.6,5.22-1.01,1.71-2.1,3.28-3.28,4.73-1.18,1.45-2.39,2.7-3.63,3.75-.27-.35-.64-.76-1.13-1.23-.48-.47-.97-.94-1.47-1.41s-.93-.84-1.31-1.11c1.77-1.29,3.4-2.95,4.88-4.98,1.48-2.03,2.65-4.16,3.5-6.39ZM478.22,314.64h.93l.89-.24,3.51,1.73c-.89,2.39-2,4.59-3.33,6.61-1.33,2.01-2.85,3.85-4.55,5.5-1.71,1.65-3.55,3.12-5.52,4.41-1.97,1.29-4.04,2.39-6.19,3.3-.32-.64-.78-1.38-1.37-2.2s-1.16-1.47-1.69-1.95c1.91-.7,3.75-1.6,5.54-2.7,1.79-1.1,3.45-2.36,5-3.79s2.9-2.96,4.07-4.61c1.17-1.65,2.08-3.38,2.72-5.18v-.89ZM464.72,333.74h17.61v15.03h-5.2v-10.4h-7.46v10.4h-4.96v-15.03ZM469.31,317.78c.89,1.67,2.11,3.36,3.67,5.1,1.56,1.73,3.41,3.32,5.54,4.75,2.14,1.44,4.55,2.55,7.23,3.32-.38.35-.79.79-1.23,1.33-.44.54-.86,1.09-1.25,1.65-.39.56-.71,1.07-.95,1.53-2.01-.78-3.9-1.75-5.64-2.9s-3.32-2.43-4.73-3.83c-1.41-1.4-2.66-2.84-3.75-4.33-1.09-1.49-1.98-2.96-2.68-4.41l3.79-2.22ZM467.82,342.89h12.05v4.63h-12.05v-4.63ZM468.79,314.64h10.6v4.39h-10.6v-4.39Z"/>
    <path class="cls-1" d="M490.35,317.26h4.84v30.3h-4.84v-30.3ZM493.25,327.9h10.07v4.63h-10.07v-4.63ZM493.45,317.26h12.41v27.4h-12.41v-4.71h7.58v-18.01h-7.58v-4.67ZM495.95,310.69l5.84.85c-.48,1.4-.97,2.77-1.45,4.13-.48,1.36-.93,2.51-1.33,3.45l-4.27-.93c.16-.7.32-1.49.48-2.38s.31-1.77.44-2.66c.13-.89.23-1.71.28-2.46ZM510.98,310.77l5.12,1.21c-.51,1.99-1.14,3.96-1.89,5.92-.75,1.96-1.56,3.81-2.44,5.54s-1.77,3.24-2.68,4.53c-.32-.29-.75-.64-1.29-1.05-.54-.4-1.09-.79-1.65-1.17s-1.05-.67-1.45-.89c.89-1.13,1.73-2.45,2.52-3.97.79-1.52,1.51-3.15,2.16-4.9.64-1.75,1.18-3.49,1.61-5.24ZM508.96,328.86l4.19-2.34c.62.91,1.29,1.92,2.03,3.02.74,1.1,1.44,2.17,2.12,3.2.67,1.04,1.21,1.96,1.61,2.76l-4.55,2.74c-.35-.83-.83-1.79-1.45-2.86-.62-1.07-1.28-2.18-1.97-3.32-.7-1.14-1.36-2.21-1.97-3.2ZM520.81,316.94h4.96v1.45c0,.38-.01.67-.04.89-.13,4.51-.27,8.35-.4,11.5-.13,3.16-.3,5.76-.48,7.8-.19,2.04-.42,3.65-.69,4.82-.27,1.17-.62,2.02-1.05,2.56-.59.83-1.21,1.41-1.85,1.73s-1.4.55-2.26.68c-.78.13-1.75.2-2.9.2s-2.32-.03-3.51-.08c-.03-.7-.21-1.55-.54-2.56-.34-1.01-.75-1.87-1.23-2.6,1.29.11,2.49.17,3.61.2,1.12.03,1.93.04,2.44.04.4,0,.73-.05.99-.16.25-.11.52-.29.79-.56.32-.35.6-1.07.85-2.16.24-1.09.44-2.62.58-4.61s.29-4.48.42-7.48c.13-2.99.24-6.55.32-10.66v-1.01ZM511.06,316.94h11.6v4.84h-11.6v-4.84Z"/>
    <path class="cls-1" d="M547.41,312.02l3.91,2.66c-.99,1.4-2.18,2.79-3.57,4.19-1.38,1.4-2.88,2.74-4.47,4.03-1.6,1.29-3.24,2.49-4.92,3.59-1.68,1.1-3.33,2.04-4.94,2.82-.38-.65-.87-1.39-1.49-2.24-.62-.85-1.22-1.54-1.81-2.08,1.64-.65,3.29-1.44,4.96-2.38,1.67-.94,3.27-1.99,4.81-3.16s2.96-2.39,4.25-3.67c1.29-1.28,2.38-2.53,3.26-3.77ZM532.5,343.09h34.45v4.75h-34.45v-4.75ZM536.45,334.1h26.15v4.59h-26.15v-4.59ZM538.1,312.02h13.94v4.92h-13.94v-4.92ZM538.46,325.24h22.08v4.67h-22.08v-4.67ZM546.6,312.02h5.8c.86,1.24,1.89,2.46,3.08,3.67s2.52,2.36,3.97,3.47c1.45,1.1,3,2.1,4.65,3,1.65.9,3.34,1.67,5.06,2.32-.35.35-.75.82-1.21,1.41-.46.59-.89,1.19-1.31,1.79-.42.6-.76,1.16-1.03,1.67-2.42-1.13-4.72-2.48-6.91-4.05s-4.2-3.25-6.02-5.04c-1.83-1.79-3.41-3.58-4.75-5.38h-1.33v-2.86ZM546.64,327.33h5.64v18.41h-5.64v-18.41Z"/>
    <path class="cls-1" d="M573.23,312.91h36.63v5.08h-36.63v-5.08ZM574.89,321.21h33.2v27.56h-5.44v-22.69h-22.65v22.69h-5.12v-27.56ZM578.23,341.84h26.88v4.92h-26.88v-4.92ZM583.67,324.47h4.75v19.54h-4.75v-19.54ZM585.93,328.46h10.15v4.15h-10.15v-4.15ZM585.93,335.15h10.19v4.15h-10.19v-4.15ZM588.06,315.24l6.33,1.29c-.51,1.53-.99,3.04-1.43,4.51s-.87,2.75-1.27,3.83l-4.92-1.29c.19-.78.37-1.65.54-2.62.17-.97.33-1.95.46-2.96.13-1.01.23-1.93.28-2.76ZM593.99,324.47h4.79v19.54h-4.79v-19.54Z"/>
    <path class="cls-1" d="M614.09,336.84c1.37-.27,2.95-.59,4.75-.97,1.8-.38,3.71-.79,5.74-1.23s4.05-.89,6.06-1.35l.56,4.75c-2.71.75-5.47,1.51-8.26,2.28s-5.32,1.44-7.58,2.03l-1.29-5.52ZM614.82,315.45h15.39v5.12h-15.39v-5.12ZM619.77,317.74h5.28v20.11h-5.28v-20.11ZM644.15,321.21l5.48.81c-.67,3.57-1.58,6.78-2.72,9.63s-2.58,5.35-4.31,7.51c-1.73,2.16-3.79,4.04-6.17,5.64-2.38,1.6-5.14,2.93-8.28,4.01-.16-.43-.4-.95-.73-1.57s-.68-1.24-1.07-1.85c-.39-.62-.75-1.13-1.07-1.53,3.84-1.1,7.03-2.63,9.57-4.59,2.54-1.96,4.55-4.42,6.04-7.39,1.49-2.97,2.57-6.52,3.24-10.66ZM634.64,310.61l5.28,1.09c-.62,2.53-1.37,5.01-2.26,7.46s-1.86,4.71-2.92,6.81c-1.06,2.09-2.21,3.92-3.45,5.48-.32-.29-.77-.65-1.33-1.07-.56-.42-1.14-.82-1.71-1.21-.58-.39-1.08-.69-1.51-.91,1.24-1.37,2.35-2.99,3.34-4.86.99-1.87,1.87-3.9,2.64-6.08s1.4-4.43,1.91-6.71ZM636.34,321.65c.73,3.52,1.77,6.76,3.14,9.71,1.37,2.96,3.16,5.51,5.36,7.66,2.2,2.15,4.93,3.8,8.18,4.96-.4.38-.84.85-1.31,1.41-.47.56-.91,1.15-1.33,1.75-.42.6-.76,1.16-1.03,1.67-3.52-1.45-6.45-3.42-8.78-5.9-2.34-2.48-4.22-5.44-5.66-8.86s-2.61-7.26-3.53-11.5l4.96-.89ZM633.8,317.78h18.5v5.12h-18.5v-5.12Z"/>
    <path class="cls-1" d="M657.97,312.46h10.07v4.75h-5.12v31.59h-4.96v-36.35ZM666.56,312.46h.93l.73-.2,3.67,2.05c-.35,1.21-.73,2.49-1.13,3.83-.4,1.34-.81,2.67-1.23,3.97-.42,1.3-.81,2.48-1.19,3.53,1.21,1.56,1.99,3.03,2.34,4.41.35,1.38.52,2.65.52,3.81,0,1.4-.15,2.53-.46,3.41-.31.87-.81,1.57-1.51,2.08-.32.24-.69.44-1.11.58-.42.15-.84.26-1.27.34-.38.05-.81.09-1.29.1-.48.01-.97.02-1.45.02-.03-.7-.13-1.5-.32-2.42-.19-.91-.46-1.69-.81-2.34.32.03.62.04.89.04h.72c.43,0,.81-.12,1.13-.36.24-.16.41-.43.5-.81.09-.38.14-.83.14-1.37,0-.91-.17-1.97-.52-3.16-.35-1.19-1.06-2.45-2.13-3.77.27-.89.54-1.9.81-3.04.27-1.14.54-2.28.81-3.42s.51-2.21.73-3.2c.21-.99.39-1.81.52-2.46v-1.61ZM675.79,319.72h5.32c-.08,3.28-.24,6.35-.48,9.23-.24,2.88-.72,5.53-1.43,7.98-.71,2.45-1.81,4.65-3.3,6.63-1.49,1.97-3.54,3.67-6.14,5.1-.32-.64-.81-1.38-1.47-2.2-.66-.82-1.3-1.46-1.91-1.91,2.31-1.24,4.1-2.68,5.36-4.33,1.26-1.65,2.18-3.51,2.74-5.58.56-2.07.91-4.34,1.05-6.83.13-2.48.23-5.18.28-8.08ZM670.95,317.1h23.01v4.96h-23.01v-4.96ZM678.69,326.49h9.63v4.84h-9.63v-4.84ZM678.89,311.66l4.92-1.25c.35.89.71,1.87,1.07,2.96.36,1.09.64,2.01.83,2.76l-5.16,1.45c-.13-.75-.36-1.69-.68-2.82s-.65-2.16-.97-3.1ZM686.42,326.49h5.32v2.18c-.11,2.88-.22,5.36-.32,7.46-.11,2.09-.23,3.85-.36,5.26-.13,1.41-.31,2.53-.52,3.36s-.47,1.44-.77,1.81c-.48.64-.99,1.1-1.53,1.37-.54.27-1.14.46-1.81.56-.59.13-1.34.21-2.26.22-.91.01-1.88,0-2.9-.02-.03-.78-.19-1.67-.48-2.68-.3-1.01-.67-1.87-1.13-2.6.86.08,1.64.13,2.34.16.7.03,1.25.04,1.65.04.56,0,1.03-.2,1.41-.6.24-.3.45-.99.62-2.1s.32-2.75.44-4.94c.12-2.19.22-5.04.3-8.56v-.93Z"/>
  </g>
  <g>
    <g>
      <path class="cls-1" d="M694.67,160.97h-155.44V0h155.44v160.97ZM571.17,129.03h91.57V31.94h-91.57v97.1Z"/>
      <polygon class="cls-1" points="528.6 0 370.36 0 370.36 31.94 496.66 31.94 496.66 63.36 370.36 121.98 370.36 160.97 527.81 160.97 527.81 129.03 431.02 129.03 528.6 83.74 528.6 0"/>
    </g>
    <g>
      <path class="cls-1" d="M52.18,6.11v20.28c-2.67-2.88-5.18-4.98-7.54-6.28-2.64-1.27-5.36-1.91-8.19-1.91-5.3,0-9.63,1.81-12.98,5.44-1.15,1.3-2.08,2.66-2.79,4.07-.71,1.41-1.25,3.01-1.61,4.79-.36,1.78-.53,3.59-.53,5.42,0,5.46,1.67,10,5.02,13.63,3.38,3.57,7.67,5.35,12.88,5.35,2.79,0,5.52-.67,8.19-2,2.36-1.21,4.87-3.29,7.54-6.23v20.33c-3.44,1.61-6.37,2.68-8.79,3.21-3.01.71-5.95,1.07-8.83,1.07-3.66,0-7.1-.44-10.32-1.33-3.22-.88-6.11-2.22-8.65-4.02-5.07-3.47-8.94-7.75-11.6-12.84-2.66-5.27-3.99-11.12-3.99-17.53,0-5.15.87-9.88,2.6-14.19.77-2.08,1.76-4.04,2.95-5.88,1.19-1.84,2.73-3.76,4.62-5.74,3.25-3.35,6.91-5.83,10.97-7.44,4.03-1.64,8.5-2.47,13.43-2.47,2.82,0,5.76.34,8.83,1.02,3.04.81,5.96,1.89,8.78,3.26Z"/>
      <path class="cls-1" d="M126.84,37.64c0,4.93-.88,9.53-2.65,13.81-1.77,4.19-4.4,8-7.9,11.44-3.47,3.35-7.44,5.92-11.9,7.72-4.68,1.83-9.31,2.74-13.9,2.74s-9.28-.92-13.9-2.74c-4.55-1.83-8.49-4.4-11.81-7.72-3.35-3.19-5.98-7.04-7.9-11.53-1.86-4.4-2.79-8.98-2.79-13.72s.93-9.32,2.79-13.72c1.92-4.5,4.55-8.34,7.9-11.53,3.41-3.41,7.34-6.02,11.81-7.81,4.34-1.77,8.97-2.65,13.9-2.65s9.59.89,13.99,2.67c4.4,1.78,8.33,4.38,11.78,7.79,3.45,3.41,6.1,7.26,7.92,11.53,1.77,4.28,2.65,8.85,2.65,13.72ZM90.47,57.64c5.12,0,9.4-1.91,12.84-5.72,1.71-1.89,2.96-4.02,3.77-6.37.81-2.36,1.21-4.99,1.21-7.91,0-5.67-1.69-10.43-5.07-14.28-3.44-3.81-7.69-5.72-12.74-5.72s-9.44,1.91-12.79,5.72c-3.35,3.81-5.02,8.57-5.02,14.28s1.64,10.71,4.93,14.37c3.38,3.75,7.67,5.63,12.88,5.63Z"/>
      <path class="cls-1" d="M210.84,71.55h-17.35l-4-29.44c-.34-2.63-.59-4.95-.74-6.93-.22-1.95-.43-4.73-.65-8.33-.56,3.23-1.43,6.82-2.6,10.79-.25.78-.43,1.44-.56,2l-9.25,31.91h-12.37l-9.26-31.91c-.09-.53-.28-1.19-.56-2-1.3-4.19-2.16-7.78-2.56-10.79-.25,3.41-.48,5.95-.7,7.63-.09.87-.23,2.14-.42,3.81-.19,1.67-.33,2.95-.42,3.81l-4,29.44h-17.25L138.66,3.46h18.37l10.28,35.12c.19.65.31,1.07.37,1.26.9,2.92,1.5,5.58,1.81,8,.06-.84.29-2.2.7-4.09.12-.46.59-2.22,1.39-5.26l10.37-35.02h18.42l10.46,68.09Z"/>
      <path class="cls-1" d="M232.52,71.55h-17.44V3.46h19.42c7.54,0,12.9.37,16.07,1.12,3.1.81,5.69,2.08,7.77,3.81,2.48,2.08,4.39,4.65,5.72,7.72,1.33,3.13,2,6.62,2,10.46,0,4.09-.67,7.66-2,10.7-1.18,3.07-3.08,5.61-5.72,7.63-1.89,1.49-4.17,2.56-6.84,3.21-2.39.65-6.54.98-12.46.98h-6.51v22.46ZM232.52,34.11h3.54c4.4,0,7.52-.64,9.35-1.91,1.77-1.18,2.65-3.24,2.65-6.19s-.86-4.84-2.58-6.07c-1.72-1.22-4.8-1.84-9.23-1.84h-3.72v16Z"/>
      <path class="cls-1" d="M269.32,3.46h18.56v33.12c0,5.05.12,8.56.37,10.51.31,2.33.73,4.09,1.26,5.3.65,1.77,1.88,3.07,3.67,3.91,1.8.96,3.97,1.44,6.51,1.44s4.67-.48,6.46-1.44c1.64-.81,2.88-2.11,3.72-3.91.5-1.24.9-3.01,1.21-5.3.28-1.86.42-5.36.42-10.51V3.46h18.46v36c0,7.38-.45,12.87-1.35,16.46-.84,3.57-2.36,6.62-4.56,9.16-2.42,2.82-5.63,4.88-9.63,6.19-3.97,1.4-8.88,2.09-14.74,2.09s-10.91-.7-14.79-2.09c-3.93-1.3-7.13-3.36-9.6-6.19-2.13-2.48-3.65-5.54-4.55-9.16-.96-3.66-1.44-9.15-1.44-16.46V3.46Z"/>
    </g>
    <g>
      <path class="cls-1" d="M4.39,161.49v-69.88h42.82v15.37h-24.25v12.08h22.86v15.04h-22.86v27.4H4.39Z"/>
      <path class="cls-1" d="M123.44,126.69c0,5.06-.91,9.79-2.72,14.18-1.81,4.3-4.52,8.21-8.11,11.74-3.56,3.44-7.63,6.08-12.21,7.92-4.8,1.88-9.56,2.82-14.26,2.82s-9.52-.94-14.26-2.82c-4.67-1.88-8.71-4.52-12.12-7.92-3.43-3.28-6.14-7.22-8.11-11.84-1.91-4.52-2.86-9.21-2.86-14.08s.95-9.56,2.86-14.08c1.97-4.61,4.67-8.56,8.11-11.84,3.5-3.5,7.54-6.17,12.12-8.02,4.45-1.81,9.21-2.72,14.26-2.72s9.84.92,14.36,2.74c4.52,1.83,8.55,4.49,12.09,8,3.54,3.5,6.26,7.45,8.13,11.84,1.81,4.39,2.72,9.09,2.72,14.08ZM86.11,147.22c5.25,0,9.64-1.96,13.17-5.87,1.75-1.94,3.04-4.12,3.87-6.54.83-2.42,1.24-5.12,1.24-8.11,0-5.82-1.73-10.71-5.2-14.65-3.53-3.91-7.89-5.87-13.08-5.87s-9.69,1.96-13.13,5.87c-3.44,3.91-5.15,8.8-5.15,14.65s1.69,10.99,5.06,14.75c3.47,3.85,7.88,5.78,13.22,5.78Z"/>
      <path class="cls-1" d="M129.46,161.49v-69.88h19.93c3.86,0,7.11.08,9.77.24,2.66.16,4.85.43,6.57.81,2.96.7,5.6,1.91,7.92,3.63,2.55,1.91,4.47,4.36,5.78,7.35,1.37,2.86,2.05,6.11,2.05,9.74,0,5.38-1.34,9.79-4.01,13.22-2.61,3.44-6.48,5.68-11.6,6.73l19.04,28.16h-21.53l-16.04-27.35v27.35h-17.9ZM147.36,124.64h3.53c4.17,0,7.18-.68,9.02-2.05,1.88-1.53,2.82-3.74,2.82-6.63,0-3.5-.88-5.98-2.62-7.45-1.78-1.5-4.76-2.24-8.93-2.24h-3.82v18.38Z"/>
      <path class="cls-1" d="M185.84,91.61h19.04v33.99c0,5.19.13,8.78.38,10.79.32,2.39.75,4.2,1.29,5.44.67,1.81,1.92,3.15,3.77,4.01,1.84.99,4.07,1.48,6.68,1.48s4.79-.49,6.63-1.48c1.69-.83,2.96-2.16,3.82-4.01.51-1.27.92-3.09,1.24-5.44.29-1.91.43-5.5.43-10.79v-33.99h18.95v36.94c0,7.57-.46,13.21-1.38,16.9-.86,3.66-2.42,6.79-4.68,9.4-2.48,2.9-5.78,5.01-9.88,6.35-4.07,1.43-9.12,2.15-15.13,2.15s-11.2-.72-15.17-2.15c-4.03-1.34-7.32-3.45-9.86-6.35-2.19-2.55-3.75-5.68-4.67-9.4-.99-3.75-1.48-9.39-1.48-16.9v-36.94Z"/>
      <path class="cls-1" d="M336.82,161.49h-17.8l-4.1-30.21c-.35-2.7-.6-5.08-.76-7.11-.22-2-.45-4.85-.67-8.54-.57,3.31-1.46,7-2.67,11.07-.25.8-.45,1.48-.57,2.05l-9.5,32.74h-12.7l-9.5-32.74c-.1-.54-.29-1.23-.57-2.05-1.34-4.3-2.21-7.99-2.62-11.07-.25,3.5-.49,6.11-.72,7.83-.1.89-.24,2.2-.43,3.91-.19,1.72-.33,3.02-.43,3.91l-4.1,30.21h-17.71l10.79-69.88h18.85l10.55,36.04c.19.67.32,1.1.38,1.29.92,2.99,1.54,5.73,1.86,8.21.06-.86.3-2.26.72-4.2.13-.48.6-2.27,1.43-5.39l10.64-35.94h18.9l10.74,69.88Z"/>
    </g>
    <g>
      <path class="cls-1" d="M712.91,43.94V12.18h-9.32V2.35h29.97v9.83h-9.32v31.76h-11.33Z"/>
      <path class="cls-1" d="M736.77,43.94V2.35h11.33v16.16h15.14V2.35h11.33v41.59h-11.33v-16.93h-15.14v16.93h-11.33Z"/>
    </g>
  </g>
  <g>
    <g>
      <path class="cls-1" d="M44.75,443.62H6.02l22.76-26.96c1.48-1.78,2.49-3.27,3.05-4.47.67-1.39,1-2.62,1-3.71,0-1.78-.54-3.25-1.63-4.4-1.2-1.08-2.69-1.63-4.47-1.63-2.17,0-3.82.69-4.96,2.08-1.2,1.41-1.8,3.42-1.8,6.03v.62H7.78v-.35c0-5.71,1.69-10.22,5.06-13.55,3.3-3.33,7.89-4.99,13.76-4.99s10.2,1.47,13.55,4.4c3.4,2.91,5.09,6.81,5.09,11.71,0,2.33-.54,4.65-1.63,6.96-1.09,2.29-2.83,4.75-5.23,7.38l-9.15,10.08h15.52v10.78Z"/>
      <path class="cls-1" d="M90.39,419.12c0,8.02-1.7,14.33-5.09,18.95-3.42,4.6-8.11,6.9-14.07,6.9s-10.64-2.34-14.03-7.03c-1.11-1.48-2.07-3.22-2.88-5.21-.81-2-1.4-4.15-1.77-6.46-.37-2.31-.55-4.85-.55-7.62,0-4.11.43-7.77,1.3-10.98s2.17-5.98,3.9-8.32c3.42-4.64,8.1-6.96,14.03-6.96s10.74,2.32,14.14,6.96c3.35,4.78,5.02,11.38,5.02,19.78ZM64.78,418.64c0,5.64.52,9.68,1.56,12.13,1.04,2.56,2.67,3.85,4.89,3.85s3.78-1.28,4.82-3.85c1.04-2.45,1.56-6.49,1.56-12.13s-.52-9.59-1.56-12.06c-1.04-2.61-2.65-3.92-4.82-3.92-2.29,0-3.92,1.26-4.89,3.78-1.04,2.47-1.56,6.54-1.56,12.2Z"/>
      <path class="cls-1" d="M133.46,443.62h-38.74l22.76-26.96c1.48-1.78,2.49-3.27,3.05-4.47.67-1.39,1-2.62,1-3.71,0-1.78-.54-3.25-1.63-4.4-1.2-1.08-2.69-1.63-4.47-1.63-2.17,0-3.82.69-4.96,2.08-1.2,1.41-1.8,3.42-1.8,6.03v.62h-12.2v-.35c0-5.71,1.69-10.22,5.06-13.55,3.3-3.33,7.89-4.99,13.76-4.99s10.2,1.47,13.55,4.4c3.4,2.91,5.09,6.81,5.09,11.71,0,2.33-.54,4.65-1.63,6.96-1.09,2.29-2.83,4.75-5.23,7.38l-9.15,10.08h15.52v10.78Z"/>
      <path class="cls-1" d="M159.3,411.26c.92-.25,1.77-.44,2.53-.55.85-.14,1.78-.21,2.77-.21,4.37,0,7.91,1.51,10.64,4.54,2.84,3.05,4.26,6.87,4.26,11.47,0,5.59-1.74,10.07-5.23,13.44-3.6,3.35-8.34,5.02-14.21,5.02s-10.59-1.65-14.03-4.96c-1.09-1.02-2.03-2.24-2.84-3.66-.81-1.42-1.4-2.93-1.78-4.52-.38-1.59-.57-3.35-.57-5.27,0-3,.59-5.98,1.77-8.94,1.13-3.03,3.57-7.45,7.31-13.27l7.1-10.98h14.14l-11.85,17.88ZM159.93,419.37c-2.38,0-4.25.68-5.61,2.04-1.36,1.43-2.04,3.35-2.04,5.75s.68,4.25,2.04,5.68c1.36,1.36,3.23,2.04,5.61,2.04s4.25-.68,5.61-2.04c1.36-1.43,2.04-3.33,2.04-5.68s-.68-4.32-2.04-5.75c-1.36-1.36-3.23-2.04-5.61-2.04Z"/>
      <path class="cls-1" d="M186.19,437.96c0-1.98.66-3.63,1.98-4.94,1.34-1.34,2.99-2,4.95-2s3.72.67,5.06,2c1.32,1.31,1.97,2.96,1.97,4.94s-.66,3.66-1.97,4.98c-1.41,1.36-3.1,2.04-5.06,2.04s-3.55-.68-4.95-2.04c-1.32-1.31-1.98-2.97-1.98-4.98Z"/>
      <path class="cls-1" d="M245.58,419.12c0,8.02-1.7,14.33-5.09,18.95-3.42,4.6-8.11,6.9-14.07,6.9s-10.64-2.34-14.03-7.03c-1.11-1.48-2.07-3.22-2.88-5.21-.81-2-1.4-4.15-1.77-6.46-.37-2.31-.55-4.85-.55-7.62,0-4.11.43-7.77,1.3-10.98s2.17-5.98,3.9-8.32c3.42-4.64,8.1-6.96,14.03-6.96s10.74,2.32,14.14,6.96c3.35,4.78,5.02,11.38,5.02,19.78ZM219.98,418.64c0,5.64.52,9.68,1.56,12.13,1.04,2.56,2.67,3.85,4.89,3.85s3.78-1.28,4.82-3.85c1.04-2.45,1.56-6.49,1.56-12.13s-.52-9.59-1.56-12.06c-1.04-2.61-2.65-3.92-4.82-3.92-2.29,0-3.92,1.26-4.89,3.78-1.04,2.47-1.56,6.54-1.56,12.2Z"/>
      <path class="cls-1" d="M270.15,411.26c.92-.25,1.77-.44,2.53-.55.85-.14,1.78-.21,2.77-.21,4.37,0,7.91,1.51,10.64,4.54,2.84,3.05,4.26,6.87,4.26,11.47,0,5.59-1.74,10.07-5.23,13.44-3.6,3.35-8.34,5.02-14.21,5.02s-10.59-1.65-14.03-4.96c-1.09-1.02-2.03-2.24-2.84-3.66-.81-1.42-1.4-2.93-1.78-4.52-.38-1.59-.57-3.35-.57-5.27,0-3,.59-5.98,1.77-8.94,1.13-3.03,3.57-7.45,7.31-13.27l7.1-10.98h14.14l-11.85,17.88ZM270.77,419.37c-2.38,0-4.25.68-5.61,2.04-1.36,1.43-2.04,3.35-2.04,5.75s.68,4.25,2.04,5.68c1.36,1.36,3.23,2.04,5.61,2.04s4.25-.68,5.61-2.04c1.36-1.43,2.04-3.33,2.04-5.68s-.68-4.32-2.04-5.75c-1.36-1.36-3.23-2.04-5.61-2.04Z"/>
      <path class="cls-1" d="M297.03,437.96c0-1.98.66-3.63,1.98-4.94,1.34-1.34,2.99-2,4.95-2s3.72.67,5.06,2c1.32,1.31,1.97,2.96,1.97,4.94s-.66,3.66-1.97,4.98c-1.41,1.36-3.1,2.04-5.06,2.04s-3.55-.68-4.95-2.04c-1.32-1.31-1.98-2.97-1.98-4.98Z"/>
      <path class="cls-1" d="M332.07,443.62v-38.74h-10.84l5.96-11.5h17.53v50.24h-12.65Z"/>
      <path class="cls-1" d="M376.42,443.62v-38.74h-10.84l5.96-11.5h17.53v50.24h-12.65Z"/>
    </g>
    <g>
      <path class="cls-1" d="M506.76,399.13c-.03-.2-.11-.48-.23-.84-.12-.36-.25-.73-.38-1.13s-.27-.72-.41-.99c.34-.08.66-.22.95-.44.29-.22.64-.51,1.02-.88.2-.19.49-.48.87-.9s.8-.9,1.26-1.48c.46-.57.92-1.2,1.4-1.87.47-.67.9-1.36,1.29-2.06l3.12,1.35c-.67.98-1.4,1.94-2.19,2.87s-1.61,1.81-2.44,2.63-1.66,1.55-2.47,2.2v.09c-.36.19-.66.36-.9.51-.24.16-.45.32-.63.49-.18.17-.27.32-.27.44ZM506.76,399.13l-.05-2.4,2.05-1.07,14.15-.42c.02.42.05.91.12,1.47.06.56.12,1,.16,1.33-2.19.09-4.09.18-5.71.26-1.62.08-3,.14-4.13.2-1.13.05-2.08.1-2.83.15-.75.05-1.37.09-1.84.14-.47.05-.85.1-1.14.15s-.55.12-.78.2ZM507.39,400.58h16.01v10.4h-3.33v-7.45h-9.52v7.45h-3.16v-10.4ZM508.9,406.83h12.75v2.98h-12.75v-2.98ZM517.21,392.64l2.4-1.61c.7.67,1.44,1.41,2.23,2.22s1.54,1.62,2.23,2.43,1.26,1.54,1.67,2.21l-2.63,1.91c-.37-.67-.89-1.42-1.55-2.25-.66-.83-1.38-1.67-2.15-2.54s-1.51-1.66-2.21-2.38Z"/>
      <path class="cls-1" d="M527.89,407.49c.85-.25,1.85-.56,3-.94,1.15-.38,2.37-.79,3.66-1.23,1.3-.44,2.57-.88,3.83-1.31l.56,2.77c-1.1.46-2.22.93-3.35,1.38-1.13.46-2.23.9-3.3,1.33s-2.08.82-3.02,1.18l-1.37-3.17ZM528.73,394.43h6.93v3.09h-6.93v-3.09ZM533.98,389.38h3.21v17.45h-3.21v-17.45ZM540.03,389.41h3.21v16.45c0,.65.05,1.06.14,1.23.09.17.33.26.7.26h1.86c.28,0,.49-.15.63-.44.14-.29.24-.81.3-1.56.06-.74.12-1.81.16-3.19.26.2.57.4.93.59.36.19.72.37,1.08.51s.68.25.94.31c-.08,1.63-.23,2.94-.46,3.93-.23.99-.61,1.72-1.12,2.18-.51.46-1.23.69-2.14.69h-2.7c-.9,0-1.61-.14-2.13-.42s-.88-.75-1.09-1.41c-.21-.66-.31-1.56-.31-2.71v-16.43ZM541.71,394.41h7.54v3.07h-7.54v-3.07Z"/>
      <path class="cls-1" d="M551.62,405.93c.95-.14,2.04-.32,3.27-.55s2.54-.47,3.92-.75c1.38-.27,2.74-.54,4.07-.8l.28,2.79c-1.27.29-2.56.58-3.86.87s-2.57.56-3.79.83-2.34.5-3.35.72l-.54-3.12ZM552.2,390.31h10.7v2.98h-10.7v-2.98ZM552.81,395.88h2.77v11.01h-2.77v-11.01ZM556.81,391.92h3v14.59h-3v-14.59ZM558.14,397.06h4.19v2.93h-4.19v-2.93ZM565.12,389.01l3.07.49c-.25,1.5-.58,2.97-1,4.39-.42,1.42-.91,2.73-1.47,3.93s-1.2,2.25-1.93,3.15c-.16-.2-.38-.44-.66-.72s-.58-.55-.9-.81-.58-.47-.81-.63c.67-.75,1.24-1.63,1.72-2.66s.89-2.16,1.22-3.37.59-2.47.76-3.76ZM569.42,395.04l3.09.26c-.33,2.64-.84,4.96-1.54,6.96s-1.66,3.73-2.9,5.18c-1.23,1.45-2.83,2.66-4.78,3.64-.08-.23-.22-.52-.43-.87-.21-.35-.43-.69-.66-1.04s-.44-.61-.63-.81c1.74-.76,3.14-1.75,4.22-2.96s1.9-2.68,2.47-4.4c.57-1.72.95-3.71,1.15-5.96ZM566.16,395.43c.34,1.95.83,3.78,1.47,5.47.64,1.69,1.47,3.17,2.51,4.43,1.04,1.26,2.33,2.26,3.89,2.99-.22.2-.46.46-.73.77-.27.31-.52.63-.76.95-.23.33-.43.64-.58.93-1.71-.92-3.11-2.1-4.21-3.56s-1.99-3.16-2.66-5.1-1.23-4.08-1.66-6.42l2.75-.47ZM564.6,393.27h9.24v2.84h-9.24v-2.84Z"/>
      <path class="cls-1" d="M584.8,389.03h3.4c-.02,1.23-.05,2.5-.1,3.84s-.17,2.68-.36,4.03c-.19,1.35-.49,2.69-.9,4.01-.41,1.33-.99,2.6-1.72,3.82-.74,1.22-1.67,2.35-2.82,3.4-1.14,1.05-2.54,1.98-4.2,2.8-.23-.43-.57-.9-1-1.38s-.88-.9-1.33-1.25c1.57-.71,2.88-1.53,3.94-2.44,1.06-.92,1.92-1.91,2.57-2.99.65-1.08,1.15-2.2,1.5-3.36.35-1.16.59-2.34.72-3.54s.21-2.38.23-3.55c.02-1.17.04-2.3.06-3.38ZM576.24,395.18h20.78v3.19h-20.78v-3.19ZM588.34,396.46c.47,1.75,1.1,3.38,1.91,4.89s1.82,2.83,3.03,3.97c1.21,1.14,2.64,2.04,4.28,2.69-.25.22-.52.5-.81.85-.29.35-.57.71-.84,1.07s-.48.7-.65,1.01c-1.8-.85-3.34-1.94-4.62-3.27-1.28-1.33-2.35-2.87-3.21-4.62-.86-1.75-1.59-3.71-2.2-5.86l3.12-.72Z"/>
      <path class="cls-1" d="M605.39,389.52l3.47,1.12c-.56,1.27-1.23,2.54-2,3.82-.78,1.27-1.59,2.47-2.46,3.58-.86,1.12-1.71,2.09-2.55,2.91-.2-.23-.47-.52-.8-.86-.33-.34-.67-.67-1.02-1-.35-.33-.66-.59-.94-.79.82-.7,1.63-1.52,2.42-2.46s1.52-1.95,2.19-3.04,1.23-2.18,1.7-3.28ZM602.21,410.28c-.08-.23-.19-.55-.33-.95-.14-.4-.29-.82-.45-1.26-.16-.43-.32-.81-.48-1.12.4-.11.78-.31,1.13-.6.35-.29.75-.7,1.2-1.21.26-.25.62-.66,1.07-1.23.45-.57.95-1.26,1.51-2.07.56-.81,1.11-1.68,1.66-2.62s1.04-1.88,1.48-2.83l3.65,1.51c-.74,1.32-1.57,2.61-2.48,3.89-.91,1.27-1.85,2.47-2.82,3.61-.97,1.13-1.93,2.16-2.87,3.07v.07c-.45.25-.83.46-1.14.64-.31.18-.58.36-.8.56-.22.19-.34.38-.34.55ZM602.21,410.28l-.12-2.65,2.02-1.12,13.26-.88c.06.47.17.99.31,1.56.15.57.28,1.04.38,1.4-2.13.19-3.97.34-5.53.48-1.56.13-2.89.24-3.98.33-1.09.08-2,.17-2.73.24-.73.08-1.32.15-1.77.21-.45.06-.82.13-1.11.2-.29.07-.54.15-.76.24ZM609.89,389.59h4.79v3.19h-4.79v-3.19ZM612.21,389.59h3.63c.33,1.04.77,2.07,1.34,3.09.57,1.02,1.24,1.97,2.01,2.84.78.87,1.64,1.6,2.61,2.19-.23.22-.5.52-.8.9-.3.38-.59.77-.87,1.16s-.5.76-.67,1.08c-1.02-.79-1.96-1.72-2.82-2.78-.85-1.06-1.59-2.18-2.22-3.35-.63-1.17-1.14-2.31-1.55-3.43h-.65v-1.7ZM612.4,402.62l3.02-1.37c.64.85,1.28,1.77,1.92,2.75s1.25,1.93,1.83,2.86c.57.93,1.05,1.76,1.42,2.49l-3.21,1.72c-.33-.73-.77-1.59-1.33-2.57-.56-.99-1.16-1.99-1.8-3.03-.64-1.03-1.26-1.98-1.85-2.85Z"/>
      <path class="cls-1" d="M633.55,388.82l2.82,1.35c-.95,1.32-2.04,2.54-3.27,3.67-1.23,1.12-2.55,2.13-3.94,3.02-1.4.89-2.82,1.67-4.28,2.34-.23-.42-.54-.88-.93-1.37-.39-.5-.78-.92-1.19-1.28,1.4-.53,2.77-1.17,4.13-1.93,1.36-.76,2.62-1.63,3.78-2.61,1.16-.98,2.12-2.04,2.88-3.19ZM624.13,407.6h19.92v2.79h-19.92v-2.79ZM626.55,399.62h3.05v9.42h-3.05v-9.42ZM632.55,395.83h3.3v13.47h-3.3v-13.47ZM635.5,390.5c1.07,1.12,2.15,2.06,3.25,2.82,1.09.76,2.2,1.39,3.33,1.88,1.12.5,2.24.92,3.34,1.28-.37.34-.75.76-1.12,1.26s-.66.98-.86,1.44c-1.15-.48-2.3-1.03-3.44-1.65-1.15-.62-2.3-1.4-3.46-2.33-1.16-.93-2.34-2.09-3.55-3.47l2.51-1.23ZM634.11,400.51h7.84v2.75h-7.84v-2.75Z"/>
      <path class="cls-1" d="M648.14,393.04h19.38v11.89h-3.26v-8.84h-13.01v8.96h-3.12v-12.01ZM649.74,400.76h16.31v3.03h-16.31v-3.03ZM656.12,389.03h3.26v21.96h-3.26v-21.96Z"/>
      <path class="cls-1" d="M672.38,396.99l3.03.58c-.09,1.02-.22,2.13-.37,3.33-.16,1.2-.33,2.36-.54,3.49-.2,1.13-.43,2.16-.67,3.07l-3.17-1.28c.26-.84.51-1.76.75-2.77.23-1.01.43-2.06.6-3.17s.29-2.19.37-3.26ZM676.74,395.74h3.23v10.63c0,.57.07.93.21,1.07s.48.21,1.02.21h3c.39,0,.67-.11.86-.33.19-.22.32-.63.41-1.23.08-.61.15-1.5.2-2.68.25.17.54.34.88.52.34.18.69.33,1.06.46s.69.24.97.31c-.11,1.47-.3,2.63-.57,3.48s-.68,1.45-1.23,1.8c-.55.36-1.32.54-2.31.54h-3.65c-1.06,0-1.88-.13-2.48-.38s-1.01-.69-1.25-1.29c-.23-.6-.35-1.43-.35-2.49v-10.63ZM677.46,391.36l2.09-2.12c.7.43,1.47.93,2.3,1.49s1.64,1.12,2.4,1.7c.76.57,1.37,1.1,1.84,1.58l-2.28,2.42c-.42-.48-.99-1.02-1.72-1.62-.73-.6-1.5-1.2-2.32-1.82-.81-.61-1.59-1.16-2.31-1.64ZM686.88,397.39l2.89-1.19c.43.92.85,1.89,1.25,2.93.4,1.04.74,2.06,1.05,3.06.3,1,.53,1.9.69,2.71l-3.12,1.3c-.12-.79-.33-1.7-.6-2.72-.28-1.02-.61-2.07-.98-3.13-.37-1.06-.76-2.05-1.16-2.97Z"/>
      <path class="cls-1" d="M503.62,439.56l5.44-17.29h4.51l5.44,17.29h-3.98l-2.33-8.82c-.25-.88-.49-1.81-.72-2.78-.23-.97-.47-1.9-.7-2.8h-.09c-.22.92-.45,1.85-.69,2.82-.24.96-.48,1.88-.71,2.77l-2.33,8.82h-3.86ZM507.16,435.34v-2.93h8.28v2.93h-8.28Z"/>
      <path class="cls-1" d="M524.93,439.56v-2.16c1.46-1.36,2.74-2.61,3.84-3.73s1.96-2.16,2.58-3.09c.62-.94.93-1.81.93-2.62,0-.56-.09-1.03-.28-1.41s-.46-.67-.83-.87c-.36-.2-.8-.3-1.31-.3-.61,0-1.16.18-1.65.54s-.96.75-1.4,1.19l-2.07-2.05c.82-.87,1.66-1.52,2.52-1.97.86-.44,1.9-.66,3.11-.66,1.1,0,2.07.22,2.9.65.83.43,1.48,1.05,1.94,1.85.47.8.7,1.74.7,2.83,0,.95-.26,1.92-.79,2.91-.53.99-1.21,1.99-2.05,2.98-.84.99-1.73,1.98-2.68,2.96.43-.05.92-.09,1.44-.14.53-.05.99-.07,1.4-.07h3.47v3.19h-11.77Z"/>
      <path class="cls-1" d="M544.08,434.21v-2.68h6.49v2.68h-6.49Z"/>
      <path class="cls-1" d="M558.34,420.71h20.08v21.06h-3.05v-18.29h-14.12v18.29h-2.91v-21.06ZM560.18,438.07h16.85v2.77h-16.85v-2.77ZM561.72,434.3c.84-.08,1.82-.18,2.96-.3,1.13-.12,2.3-.25,3.49-.37l.07,2.02c-1.1.16-2.19.31-3.27.45s-2.08.29-2.99.43l-.26-2.23ZM561.97,425.6h12.8v2.14h-12.8v-2.14ZM562.51,428.6h5.24v4.42h-5.24v-4.42ZM564.46,430.2v1.23h1.23v-1.23h-1.23ZM572.03,428.25l2.35.47c-.57,2.02-1.41,3.8-2.5,5.34-1.09,1.54-2.38,2.8-3.87,3.78-.11-.16-.26-.35-.45-.58-.19-.23-.4-.47-.62-.71-.22-.24-.41-.42-.58-.55,1.41-.81,2.6-1.87,3.56-3.2s1.67-2.84,2.12-4.55ZM568.02,423.73h2.56c.03,1.4.1,2.74.21,4.04s.25,2.47.43,3.51c.18,1.05.4,1.9.65,2.55.26.65.55,1.02.9,1.12.12.05.22-.13.3-.54.08-.4.15-.94.21-1.61.16.16.34.33.57.54.22.2.46.39.7.56.24.17.45.3.62.4-.19,1.47-.59,2.45-1.21,2.93-.62.48-1.33.53-2.14.14-.71-.25-1.3-.79-1.76-1.63-.46-.84-.82-1.88-1.08-3.12s-.47-2.62-.6-4.14c-.14-1.52-.26-3.1-.35-4.75ZM571.24,424.53l1.35-1.33c.37.19.76.42,1.17.69s.73.53.94.78l-1.42,1.44c-.22-.25-.52-.52-.91-.81-.39-.29-.77-.55-1.14-.77Z"/>
      <path class="cls-1" d="M586.52,420.64h5.28v2.75h-2.68v18.24h-2.61v-20.99ZM590.85,420.64h.49l.4-.12,1.91,1.05c-.25,1.01-.54,2.07-.86,3.19-.33,1.12-.63,2.13-.91,3.05.61.92,1,1.78,1.18,2.58.18.81.27,1.55.27,2.23,0,.78-.08,1.42-.23,1.93s-.41.92-.77,1.21c-.19.14-.39.25-.6.34-.22.08-.44.15-.67.2-.2.02-.42.03-.66.04-.24,0-.49,0-.76-.01-.02-.34-.07-.76-.17-1.25-.1-.49-.25-.91-.45-1.27.19.02.34.02.46.02h.37c.25,0,.43-.06.56-.19.12-.09.22-.26.28-.5.06-.24.09-.53.09-.87,0-.54-.09-1.17-.26-1.9-.17-.72-.53-1.48-1.07-2.29.14-.51.28-1.07.42-1.69.14-.61.28-1.23.41-1.85s.25-1.2.36-1.73c.11-.54.19-.99.23-1.36v-.81ZM595.44,419.76l2.26.51c-.42,1.26-.98,2.45-1.67,3.57-.7,1.12-1.45,2.06-2.26,2.8-.19-.2-.47-.46-.85-.78-.38-.32-.69-.57-.94-.76.78-.64,1.47-1.42,2.07-2.36.61-.94,1.07-1.93,1.4-2.99ZM595.06,435.72l2.77.88c-.28.48-.6.98-.95,1.5s-.72,1.02-1.09,1.5c-.37.48-.73.9-1.07,1.26-.19-.16-.43-.33-.73-.54-.3-.2-.61-.4-.91-.58-.3-.19-.57-.33-.8-.44.51-.47,1.02-1.03,1.52-1.69.5-.66.93-1.29,1.27-1.9ZM592.62,426.85c.46-.03.95-.07,1.47-.13.51-.05,1.08-.11,1.7-.17l.07,1.58c-.53.11-1.02.21-1.49.3-.47.09-.95.19-1.44.28l-.3-1.86ZM598.37,421.41h.42l.4-.09,1.54.58c-.34,1.57-.81,3-1.42,4.3-.6,1.3-1.32,2.45-2.15,3.43s-1.76,1.8-2.78,2.46c-.16-.28-.38-.6-.69-.97s-.58-.66-.83-.87c.88-.51,1.7-1.19,2.44-2.05.74-.85,1.38-1.83,1.91-2.93.53-1.1.92-2.25,1.16-3.44v-.42ZM594.6,432.53h11.15v2.47h-11.15v-2.47ZM594.71,424.78l1.26-1.37c.4.29.85.63,1.34,1.01s.87.71,1.15.99l-1.3,1.54c-.26-.29-.63-.65-1.09-1.07-.46-.42-.92-.78-1.35-1.09ZM595.55,421.41h3.44v1.96h-3.44v-1.96ZM596.69,428.67h6.72v2.42h-6.72v-2.42ZM598.76,433.55h2.89v8.1h-2.89v-8.1ZM602.28,421.92c.31,1.15.73,2.24,1.26,3.27.53,1.03,1.16,1.95,1.9,2.77.74.81,1.58,1.47,2.53,1.97-.28.23-.59.56-.93.99-.34.43-.61.8-.79,1.13-1.04-.64-1.96-1.43-2.76-2.38s-1.48-2.04-2.05-3.27-1.04-2.54-1.43-3.96l2.28-.51ZM601.83,420.94h3.77v2.02h-3.77v-2.02ZM602.46,436.74l2.26-1.33c.33.37.69.79,1.08,1.25.4.46.78.9,1.14,1.34s.66.82.9,1.16l-2.4,1.49c-.2-.34-.47-.74-.81-1.19-.34-.45-.7-.92-1.08-1.4-.38-.48-.74-.92-1.08-1.33ZM604.77,420.94h.56l.49-.12,1.67.95c-.36,1.04-.79,2.07-1.31,3.09-.52,1.02-1.08,1.88-1.69,2.56-.19-.26-.44-.57-.77-.91-.33-.34-.61-.6-.86-.79.29-.37.57-.81.81-1.31.25-.5.46-1.02.65-1.55.19-.53.33-1.02.44-1.47v-.46Z"/>
      <path class="cls-1" d="M624.47,419.5l2.72.98c-.87,1.1-1.92,2.09-3.15,2.98s-2.58,1.66-4.05,2.33-2.96,1.23-4.48,1.7c-.11-.22-.26-.48-.44-.78-.19-.3-.38-.6-.59-.9-.21-.29-.4-.54-.57-.72,1.44-.34,2.84-.78,4.19-1.3s2.58-1.15,3.68-1.87c1.1-.72,2-1.52,2.7-2.41ZM616.84,426.46h16.4v6.49h-16.4v-6.49ZM618.1,433.62h13.96v7.98h-3.19v-6h-7.73v6.1h-3.05v-8.07ZM619.4,428.34v2.77h11.1v-2.77h-11.1ZM619.84,436.35h10.33v2h-10.33v-2ZM619.84,439.11h10.33v1.98h-10.33v-1.98ZM620.05,428.78l2.12-.56c.19.4.35.83.5,1.29.15.46.24.85.29,1.17l-2.23.65c-.02-.36-.09-.78-.22-1.26-.13-.48-.28-.92-.45-1.3ZM620.89,423.78h8.26v1.98h-8.26v-1.98ZM623.66,427.09h2.49v4.93h-2.49v-4.93ZM626.54,420.64c.51.48,1.13.94,1.86,1.37s1.53.84,2.41,1.21c.88.37,1.8.7,2.76.99.96.29,1.93.52,2.91.71-.33.26-.68.63-1.06,1.11s-.68.89-.9,1.25c-.98-.25-1.95-.57-2.92-.95s-1.9-.83-2.79-1.32c-.89-.49-1.73-1.02-2.5-1.61-.78-.58-1.46-1.2-2.05-1.85l2.28-.91ZM627.57,428.13l2.54.58c-.25.5-.48.97-.7,1.43-.22.46-.42.85-.61,1.17l-2.09-.56c.15-.37.32-.81.49-1.3.17-.5.29-.94.37-1.33Z"/>
      <path class="cls-1" d="M642.44,423.59h7.68v2.42h-7.68v-2.42ZM643.16,433.34h2.14v8.03h-2.14v-8.03ZM643.23,426.9h6.33v2.3h-6.33v-2.3ZM643.23,430.09h6.33v2.3h-6.33v-2.3ZM644.34,433.34h5.14v7.1h-5.14v-2.37h2.96v-2.37h-2.96v-2.35ZM644.48,420.62l2.16-.81c.26.48.53,1.02.8,1.63s.45,1.11.55,1.51l-2.28.95c-.11-.43-.28-.96-.51-1.58-.23-.62-.47-1.19-.72-1.7ZM649.88,436.23c.96-.08,2.09-.17,3.37-.28,1.29-.11,2.61-.22,3.96-.35l.05,2.19c-1.24.14-2.48.28-3.71.41s-2.36.25-3.39.36l-.28-2.33ZM650.05,432.86h14.01v2.21h-14.01v-2.21ZM650.09,427.18h14.01v2.19h-14.01v-2.19ZM655.86,429.51l1.56,1.77c-.64.17-1.33.32-2.09.44-.76.12-1.53.23-2.3.3-.78.08-1.52.13-2.23.16-.03-.23-.1-.52-.22-.87-.12-.35-.24-.65-.36-.9.65-.06,1.33-.13,2.02-.21.7-.08,1.36-.18,2-.3.64-.12,1.18-.26,1.63-.4ZM652.86,430.83h2.65v8.49c0,.56-.07.99-.21,1.3s-.4.55-.77.72c-.39.17-.84.27-1.36.3-.52.03-1.14.05-1.85.05-.05-.33-.14-.69-.28-1.08-.14-.4-.29-.76-.44-1.08.37.02.75.03,1.14.04s.64.01.75.01c.25-.02.37-.13.37-.35v-8.4ZM650.79,421.83h12.82v2.02h-12.82v-2.02ZM651.54,424.55h11.35v1.88h-11.35v-1.88ZM652.44,420.45l2.14-.74c.26.33.52.69.77,1.09s.43.77.54,1.09l-2.28.81c-.08-.31-.23-.68-.45-1.1-.23-.43-.46-.81-.71-1.15ZM661.26,435.28l2.07,1.02c-.51.75-1.12,1.44-1.83,2.09-.71.65-1.46,1.23-2.27,1.75-.81.51-1.61.94-2.42,1.28-.14-.23-.35-.51-.64-.83-.29-.32-.55-.58-.8-.78.76-.31,1.51-.69,2.26-1.14.75-.45,1.44-.96,2.07-1.54.64-.57,1.16-1.19,1.56-1.86ZM655.58,422.36h2.98v5.77h-2.98v-5.77ZM657.24,429.83h2.56c-.03,1.99.04,3.7.22,5.13.18,1.44.45,2.54.8,3.3.36.77.78,1.15,1.28,1.15.19,0,.33-.16.44-.48.11-.32.18-.78.21-1.38.25.23.54.44.86.63.33.19.62.34.88.47-.17,1.13-.46,1.94-.88,2.42-.42.48-1.01.72-1.77.72-.92,0-1.67-.3-2.26-.91-.59-.6-1.05-1.45-1.38-2.54s-.57-2.35-.72-3.8c-.15-1.45-.23-3.02-.25-4.71ZM659.59,419.71l2.7.65c-.31.45-.61.87-.9,1.26s-.55.73-.78,1.02l-2.12-.63c.2-.34.41-.73.62-1.15.21-.43.37-.81.48-1.15ZM659.84,430.85l1.77-1.21c.42.29.85.64,1.3,1.04s.79.76,1.02,1.11l-1.86,1.33c-.2-.34-.52-.72-.95-1.14-.43-.42-.86-.79-1.28-1.12Z"/>
      <path class="cls-1" d="M672.06,421.24h2.77v7.14c0,.95-.03,2-.08,3.17-.05,1.16-.15,2.35-.29,3.57s-.34,2.4-.6,3.54c-.26,1.14-.62,2.17-1.07,3.08-.16-.17-.38-.37-.67-.59-.29-.22-.59-.44-.9-.64-.3-.2-.56-.35-.78-.44.39-.84.69-1.75.91-2.73.22-.99.38-2,.48-3.05.1-1.05.17-2.07.2-3.08.03-1.01.05-1.94.05-2.79v-7.17ZM673.99,421.24h18.36v2.35h-18.36v-2.35ZM674.32,439.3c.67-.03,1.42-.07,2.25-.13s1.7-.12,2.62-.2l.05,1.75c-.82.09-1.63.18-2.42.26-.79.08-1.55.15-2.28.21l-.21-1.88ZM678.53,433.74l1,1.82c-.7.14-1.47.24-2.31.31-.85.07-1.62.09-2.32.06-.03-.22-.09-.48-.19-.8-.09-.32-.2-.6-.33-.85.7-.03,1.43-.1,2.2-.2s1.42-.21,1.94-.34ZM674.97,436.67h4.17v1.61h-4.17v-1.61ZM675.01,431.48h5.84v1.88h-5.84v-1.88ZM675.25,424.48h7.4v1.88h-7.4v-1.88ZM675.97,425.55h2.14v6.82h-2.14v-6.82ZM676.15,434.93h1.86v4.96h-1.86v-4.96ZM676.74,427.04h4.3v1.44h-4.3v-1.44ZM676.74,429.23h4.3v1.47h-4.3v-1.47ZM679.57,425.53h2.23v16.17h-2.23v-16.17ZM679.92,420.41l2.65-1.02c.33.39.63.83.92,1.31.29.49.49.94.62,1.34l-2.82,1.16c-.09-.39-.27-.85-.54-1.37s-.54-1-.84-1.42ZM682.55,436.46l1.91.54c-.08.73-.19,1.46-.35,2.19-.16.73-.4,1.33-.74,1.81l-1.86-.86c.29-.45.53-1.01.7-1.69s.29-1.34.35-1.99ZM682.46,433.14h10.1v2h-10.1v-2ZM682.81,424.92h9.24v2.05h-9.24v-2.05ZM682.9,427.76h9.03v4.7h-9.03v-4.7ZM684.58,436.51h2.14v2.63c0,.25.02.4.06.45.04.05.14.08.31.08h.79c.12,0,.21-.03.27-.09s.1-.2.13-.41c.03-.21.05-.54.07-.99.2.16.49.31.86.45s.71.25,1,.31c-.11,1.04-.31,1.73-.62,2.08-.3.35-.78.52-1.43.52h-1.42c-.61,0-1.06-.07-1.36-.22-.3-.15-.51-.4-.63-.75-.12-.35-.17-.83-.17-1.45v-2.63ZM684.72,429.43v1.35h.7v-1.35h-.7ZM685.58,435.58l1.65-.98c.4.37.81.79,1.21,1.27.4.47.69.9.86,1.27l-1.75,1.05c-.17-.36-.45-.79-.83-1.29-.38-.5-.76-.94-1.15-1.31ZM686,423.97h2.58v4.98h-2.58v-4.98ZM686.97,429.43v1.35h.77v-1.35h-.77ZM689.09,436.67l1.91-.67c.37.6.72,1.28,1.05,2.02.33.75.53,1.4.61,1.96l-2.05.74c-.06-.54-.24-1.19-.54-1.95-.29-.76-.62-1.46-.98-2.09ZM689.28,429.43v1.35h.79v-1.35h-.79Z"/>
    </g>
    <g>
      <path class="cls-1" d="M463.81,420.24s-.08.01-.13.02c-.45.03-.87.05-1.27.05h-2.71c-1.14,0-2-.19-2.57-.59-.58-.39-.98-.99-1.19-1.79-.21-.8-.32-1.82-.32-3.04v-8.39h-2.9c-.03,1.69-.1,3.25-.2,4.66-.12,1.75-.38,3.32-.77,4.72-.39,1.39-.98,2.62-1.76,3.68-.78,1.06-1.85,1.97-3.21,2.73-.13-.38-.35-.79-.64-1.24-.29-.45-.61-.87-.95-1.29-.24-.29-.48-.53-.72-.75v4.51h19.33v-3.28Z"/>
      <path class="cls-1" d="M446.57,416.66c.57-.8.98-1.74,1.24-2.81.26-1.07.42-2.31.48-3.73.05-1.09.08-2.3.09-3.63h-3.91v12.05c.88-.54,1.58-1.17,2.09-1.88Z"/>
      <path class="cls-1" d="M454.24,386.88h0c-15.7,0-28.42,12.72-28.42,28.42h0c0,15.7,12.72,28.42,28.42,28.42h0c15.7,0,28.42-12.72,28.42-28.42h0c0-15.7-12.72-28.42-28.42-28.42ZM468.49,429.67h-4.68v-1.87h-19.33v2.14h-4.48v-27.69h28.49v27.42Z"/>
      <path class="cls-1" d="M460.4,416.62h1.87c.31,0,.69-.02,1.12-.07.15-.02.29-.03.42-.05v-10.01h-4.08v8.53c0,.56.04.96.12,1.22.08.26.26.38.55.38Z"/>
    </g>
  </g>
</svg>