<?xml version="1.0" encoding="UTF-8"?>
<svg id="_圖層_1" data-name="圖層 1" xmlns="http://www.w3.org/2000/svg" viewBox="0 0 300 50">
  <defs>
    <style>
      .cls-1 {
        fill: #fff;
      }

      .cls-2 {
        fill: #84c100;
      }
    </style>
  </defs>
  <g>
    <rect class="cls-1" x="5.1" y="2.13" width="43.54" height="45.74" rx="4.64" ry="4.64" transform="translate(51.87 -1.87) rotate(90)"/>
    <g>
      <path d="M8.64,4.5c-1.86,0-3.37,1.51-3.37,3.37v4.77h23.54s2.85-8.14,2.85-8.14H8.64Z"/>
      <path d="M20.35,18.6H5.27v23.52c0,1.86,1.51,3.37,3.37,3.37h2.45l9.25-26.9Z"/>
      <path class="cls-2" d="M48.47,7.88c0-1.86-1.51-3.37-3.37-3.37h-13.44s-2.85,8.15-2.85,8.15h19.66v-4.78Z"/>
      <path class="cls-2" d="M48.47,18.6h-21.73l-2.93,8.5h20.17l-1.86,5.34h-20.15s-4.5,13.06-4.5,13.06h27.62c1.86,0,3.37-1.51,3.37-3.37v-23.52Z"/>
    </g>
  </g>
  <g>
    <path class="cls-1" d="M66.4,15.97h-9.17v-5.41h24.98v5.41h-9.17v23.26h-6.63V15.97Z"/>
    <path class="cls-1" d="M95.93,17.57v5.9c-.53-.04-.94-.08-1.43-.08-3.52,0-5.86,1.33-5.86,5.55v10.4h-6.39v-21.44h6.1v2.91c1.56-2.13,4.18-3.24,7.58-3.24Z"/>
    <path class="cls-1" d="M121.23,29.69h-16.22c.6,2.74,2.87,4.42,6.14,4.42,2.27,0,3.91-.7,5.38-2.13l3.31,3.69c-1.99,2.33-4.98,3.56-8.85,3.56-7.41,0-12.23-4.79-12.23-11.34s4.9-10.75,11.44-10.75,11.16,3.74,11.16,10.83c0,.49-.08,1.19-.12,1.72ZM104.93,25.97h10.56c-.44-2.78-2.47-3.99-5.26-3.99s-4.86,1.16-5.3,3.99Z"/>
    <path class="cls-1" d="M146.73,26.62v12.61h-6.39v-11.63c0-3.56-1.64-4.6-4.46-4.6-3.07,0-5.28,1.29-5.28,5.34v10.89h-6.39v-21.44h6.1v2.58c1.72-1.88,4.3-2.91,7.29-2.91,5.2,0,9.13,2.43,9.13,9.15Z"/>
    <path class="cls-1" d="M150.04,28.09c0-6.92,4.79-10.76,11.02-10.76,2.7,0,5,.28,6.59,2.08v-8.97h6.39v28.67h-6.1v-2.54c-1.6,1.92-3.93,2.87-6.88,2.87-6.23,0-11.02-4.42-11.02-11.34M167.77,28.09c0-3.81-2.46-6.1-5.61-6.1s-5.65,2.29-5.65,6.1,2.46,6.1,5.65,6.1,5.61-2.29,5.61-6.1Z"/>
    <path class="cls-1" d="M187.68,15.89v6.98h13.27v5.32h-13.27v11.04h-6.63V10.57h21.67v5.32h-15.03Z"/>
    <path class="cls-1" d="M204.86,28.22c0-6.63,5.12-10.76,12.12-10.76s12.08,4.13,12.08,10.76-5.08,11.34-12.08,11.34-12.12-4.71-12.12-11.34ZM222.59,28.22c0-3.81-2.42-6.1-5.61-6.1s-5.65,2.29-5.65,6.1,2.46,6.1,5.65,6.1,5.61-2.29,5.61-6.1Z"/>
    <path class="cls-1" d="M244.92,17.46v5.32c-.53-.04-.94-.08-1.43-.08-3.52,0-5.86,1.93-5.86,6.14v10.4h-6.39v-21.45h6.1v2.33c1.56-2.13,4.18-2.66,7.58-2.66Z"/>
    <path class="cls-1" d="M247.77,28.22c0-6.63,5.12-10.76,12.29-10.76,4.63,0,8.27,1.43,9.87,5.03l-4.96,2.66c-1.19-2.09-2.95-3.03-4.96-3.03-3.24,0-5.77,2.25-5.77,6.1s2.54,6.1,5.77,6.1c2.01,0,3.77-.9,4.96-3.03l4.96,2.7c-1.6,3.52-5.24,5.57-9.87,5.57-7.17,0-12.29-4.71-12.29-11.34Z"/>
    <path class="cls-1" d="M295.88,30.02h-16.67c.61,2.74,2.95,4.42,6.31,4.42,2.33,0,4.01-.7,5.53-2.13l3.4,3.69c-2.05,2.33-5.12,3.56-9.09,3.56-7.62,0-12.57-4.79-12.57-11.34s5.04-10.76,11.75-10.76,11.47,3.76,11.47,10.85c0,.49-.08,1.19-.12,1.72ZM279.13,26.3h10.85c-.45-2.78-2.54-4.59-5.41-4.59s-5,1.76-5.45,4.59Z"/>
  </g>
</svg>